{
	"asset":{
		"generator":"Khronos glTF Blender I/O v4.0.44",
		"version":"2.0"
	},
	"extensionsUsed":[
		"KHR_materials_clearcoat"
	],
	"scene":0,
	"scenes":[
		{
			"name":"Scene",
			"nodes":[
				0,
				1,
				2,
				3,
				4,
				5,
				6,
				7
			]
		}
	],
	"nodes":[
		{
			"mesh":0,
			"name":"Cube",
			"scale":[
				0.7554206848144531,
				0.1779586672782898,
				0.7554206848144531
			],
			"translation":[
				-12.415932655334473,
				17.46715545654297,
				4.861204624176025
			]
		},
		{
			"mesh":1,
			"name":"Cylinder",
			"scale":[
				0.4927416741847992,
				0.07200512290000916,
				0.4927416741847992
			],
			"translation":[
				-12.417555809020996,
				17.72913932800293,
				4.861423969268799
			]
		},
		{
			"mesh":2,
			"name":"\u0418\u0437\u043e\u043b\u044f\u0442\u043e\u0440 \u043a\u043e\u043d\u0442\u0430\u043a\u0442\u0430 #1.007",
			"rotation":[
				0,
				0,
				-1,
				0
			],
			"scale":[
				-0.06895207613706589,
				-0.028511893004179,
				-0.06895207613706589
			],
			"translation":[
				-12.971141815185547,
				17.774127960205078,
				5.470175266265869
			]
		},
		{
			"mesh":3,
			"name":"\u0418\u0437\u043e\u043b\u044f\u0442\u043e\u0440 \u043a\u043e\u043d\u0442\u0430\u043a\u0442\u0430 #1.008",
			"rotation":[
				0,
				0,
				-1,
				0
			],
			"scale":[
				-0.06895207613706589,
				-0.028511893004179,
				-0.06895207613706589
			],
			"translation":[
				-11.848058700561523,
				17.774127960205078,
				5.470175266265869
			]
		},
		{
			"mesh":4,
			"name":"Cube.089",
			"scale":[
				0.7554206848144531,
				0.1779586672782898,
				0.7554206848144531
			],
			"translation":[
				-5.74791145324707,
				17.46715545654297,
				4.95658016204834
			]
		},
		{
			"mesh":5,
			"name":"Cylinder.003",
			"scale":[
				0.4927416741847992,
				0.07200512290000916,
				0.4927416741847992
			],
			"translation":[
				-5.749534606933594,
				17.72913932800293,
				4.956799507141113
			]
		},
		{
			"mesh":6,
			"name":"\u0418\u0437\u043e\u043b\u044f\u0442\u043e\u0440 \u043a\u043e\u043d\u0442\u0430\u043a\u0442\u0430 #1.010",
			"rotation":[
				0,
				0,
				-1,
				0
			],
			"scale":[
				-0.06895207613706589,
				-0.028511893004179,
				-0.06895207613706589
			],
			"translation":[
				-5.163830280303955,
				17.774127960205078,
				4.415613174438477
			]
		},
		{
			"mesh":7,
			"name":"\u0418\u0437\u043e\u043b\u044f\u0442\u043e\u0440 \u043a\u043e\u043d\u0442\u0430\u043a\u0442\u0430 #1.011",
			"rotation":[
				0,
				0,
				-1,
				0
			],
			"scale":[
				-0.06895207613706589,
				-0.028511893004179,
				-0.06895207613706589
			],
			"translation":[
				-5.180037498474121,
				17.774127960205078,
				5.565550804138184
			]
		}
	],
	"materials":[
		{
			"doubleSided":true,
			"extensions":{
				"KHR_materials_clearcoat":{
					"clearcoatFactor":0.17818181216716766,
					"clearcoatRoughnessFactor":0.029999999329447746
				}
			},
			"name":"Material.026",
			"pbrMetallicRoughness":{
				"baseColorFactor":[
					0.590099036693573,
					0.590099036693573,
					0.590099036693573,
					1
				],
				"metallicFactor":0,
				"roughnessFactor":0.5109090805053711
			}
		},
		{
			"doubleSided":true,
			"name":"Material.009",
			"pbrMetallicRoughness":{
				"baseColorFactor":[
					0.8000000715255737,
					0.004227735567837954,
					0.01766521856188774,
					1
				],
				"metallicFactor":0,
				"roughnessFactor":0.5
			}
		},
		{
			"doubleSided":true,
			"name":"Material.007",
			"pbrMetallicRoughness":{
				"baseColorFactor":[
					0.8000000715255737,
					0.7956519722938538,
					0.19082802534103394,
					1
				],
				"metallicFactor":0,
				"roughnessFactor":0.5
			}
		}
	],
	"meshes":[
		{
			"name":"Cube.008",
			"primitives":[
				{
					"attributes":{
						"POSITION":0,
						"NORMAL":1,
						"TEXCOORD_0":2
					},
					"indices":3,
					"material":0
				}
			]
		},
		{
			"name":"Cylinder.008",
			"primitives":[
				{
					"attributes":{
						"POSITION":4,
						"NORMAL":5,
						"TEXCOORD_0":6
					},
					"indices":7,
					"material":1
				}
			]
		},
		{
			"name":"\u0418\u0437\u043e\u043b\u044f\u0442\u043e\u0440 \u043a\u043e\u043d\u0442\u0430\u043a\u0442\u0430 #1.007",
			"primitives":[
				{
					"attributes":{
						"POSITION":8,
						"NORMAL":9,
						"TEXCOORD_0":10
					},
					"indices":11,
					"material":1
				},
				{
					"attributes":{
						"POSITION":12,
						"NORMAL":13,
						"TEXCOORD_0":14
					},
					"indices":15,
					"material":2
				}
			]
		},
		{
			"name":"\u0418\u0437\u043e\u043b\u044f\u0442\u043e\u0440 \u043a\u043e\u043d\u0442\u0430\u043a\u0442\u0430 #1.008",
			"primitives":[
				{
					"attributes":{
						"POSITION":16,
						"NORMAL":17,
						"TEXCOORD_0":18
					},
					"indices":11,
					"material":1
				},
				{
					"attributes":{
						"POSITION":19,
						"NORMAL":20,
						"TEXCOORD_0":21
					},
					"indices":15,
					"material":2
				}
			]
		},
		{
			"name":"Cube.079",
			"primitives":[
				{
					"attributes":{
						"POSITION":22,
						"NORMAL":23,
						"TEXCOORD_0":24
					},
					"indices":3,
					"material":0
				}
			]
		},
		{
			"name":"Cylinder.001",
			"primitives":[
				{
					"attributes":{
						"POSITION":25,
						"NORMAL":26,
						"TEXCOORD_0":27
					},
					"indices":7,
					"material":1
				}
			]
		},
		{
			"name":"\u0418\u0437\u043e\u043b\u044f\u0442\u043e\u0440 \u043a\u043e\u043d\u0442\u0430\u043a\u0442\u0430 #1.010",
			"primitives":[
				{
					"attributes":{
						"POSITION":28,
						"NORMAL":29,
						"TEXCOORD_0":30
					},
					"indices":11,
					"material":1
				},
				{
					"attributes":{
						"POSITION":31,
						"NORMAL":32,
						"TEXCOORD_0":33
					},
					"indices":15,
					"material":2
				}
			]
		},
		{
			"name":"\u0418\u0437\u043e\u043b\u044f\u0442\u043e\u0440 \u043a\u043e\u043d\u0442\u0430\u043a\u0442\u0430 #1.011",
			"primitives":[
				{
					"attributes":{
						"POSITION":34,
						"NORMAL":35,
						"TEXCOORD_0":36
					},
					"indices":11,
					"material":1
				},
				{
					"attributes":{
						"POSITION":37,
						"NORMAL":38,
						"TEXCOORD_0":39
					},
					"indices":15,
					"material":2
				}
			]
		}
	],
	"accessors":[
		{
			"bufferView":0,
			"componentType":5126,
			"count":413,
			"max":[
				1,
				1.3398751020431519,
				1
			],
			"min":[
				-1,
				-1,
				-1
			],
			"type":"VEC3"
		},
		{
			"bufferView":1,
			"componentType":5126,
			"count":413,
			"type":"VEC3"
		},
		{
			"bufferView":2,
			"componentType":5126,
			"count":413,
			"type":"VEC2"
		},
		{
			"bufferView":3,
			"componentType":5123,
			"count":1302,
			"type":"SCALAR"
		},
		{
			"bufferView":4,
			"componentType":5126,
			"count":192,
			"max":[
				1,
				1,
				1
			],
			"min":[
				-1,
				-1,
				-1
			],
			"type":"VEC3"
		},
		{
			"bufferView":5,
			"componentType":5126,
			"count":192,
			"type":"VEC3"
		},
		{
			"bufferView":6,
			"componentType":5126,
			"count":192,
			"type":"VEC2"
		},
		{
			"bufferView":7,
			"componentType":5123,
			"count":372,
			"type":"SCALAR"
		},
		{
			"bufferView":8,
			"componentType":5126,
			"count":208,
			"max":[
				0.9823427200317383,
				1.1753978729248047,
				0.9949230551719666
			],
			"min":[
				-1.0176568031311035,
				-5.403257369995117,
				-1.0050770044326782
			],
			"type":"VEC3"
		},
		{
			"bufferView":9,
			"componentType":5126,
			"count":208,
			"type":"VEC3"
		},
		{
			"bufferView":10,
			"componentType":5126,
			"count":208,
			"type":"VEC2"
		},
		{
			"bufferView":11,
			"componentType":5123,
			"count":858,
			"type":"SCALAR"
		},
		{
			"bufferView":12,
			"componentType":5126,
			"count":490,
			"max":[
				0.9052596092224121,
				2.1499710083007812,
				0.9006081819534302
			],
			"min":[
				-0.8922038078308105,
				-5.3875508308410645,
				-0.8968549966812134
			],
			"type":"VEC3"
		},
		{
			"bufferView":13,
			"componentType":5126,
			"count":490,
			"type":"VEC3"
		},
		{
			"bufferView":14,
			"componentType":5126,
			"count":490,
			"type":"VEC2"
		},
		{
			"bufferView":15,
			"componentType":5123,
			"count":2580,
			"type":"SCALAR"
		},
		{
			"bufferView":16,
			"componentType":5126,
			"count":208,
			"max":[
				0.9823427200317383,
				1.1753978729248047,
				0.9949230551719666
			],
			"min":[
				-1.0176568031311035,
				-5.403257369995117,
				-1.0050770044326782
			],
			"type":"VEC3"
		},
		{
			"bufferView":17,
			"componentType":5126,
			"count":208,
			"type":"VEC3"
		},
		{
			"bufferView":18,
			"componentType":5126,
			"count":208,
			"type":"VEC2"
		},
		{
			"bufferView":19,
			"componentType":5126,
			"count":490,
			"max":[
				0.9052596092224121,
				2.1499710083007812,
				0.9006081819534302
			],
			"min":[
				-0.8922038078308105,
				-5.3875508308410645,
				-0.8968549966812134
			],
			"type":"VEC3"
		},
		{
			"bufferView":20,
			"componentType":5126,
			"count":490,
			"type":"VEC3"
		},
		{
			"bufferView":21,
			"componentType":5126,
			"count":490,
			"type":"VEC2"
		},
		{
			"bufferView":22,
			"componentType":5126,
			"count":413,
			"max":[
				1,
				1.3398751020431519,
				1
			],
			"min":[
				-1,
				-1,
				-1
			],
			"type":"VEC3"
		},
		{
			"bufferView":23,
			"componentType":5126,
			"count":413,
			"type":"VEC3"
		},
		{
			"bufferView":24,
			"componentType":5126,
			"count":413,
			"type":"VEC2"
		},
		{
			"bufferView":25,
			"componentType":5126,
			"count":192,
			"max":[
				1,
				1,
				1
			],
			"min":[
				-1,
				-1,
				-1
			],
			"type":"VEC3"
		},
		{
			"bufferView":26,
			"componentType":5126,
			"count":192,
			"type":"VEC3"
		},
		{
			"bufferView":27,
			"componentType":5126,
			"count":192,
			"type":"VEC2"
		},
		{
			"bufferView":28,
			"componentType":5126,
			"count":208,
			"max":[
				0.9823400378227234,
				1.1753976345062256,
				0.9949230551719666
			],
			"min":[
				-1.0176594257354736,
				-5.403257369995117,
				-1.0050770044326782
			],
			"type":"VEC3"
		},
		{
			"bufferView":29,
			"componentType":5126,
			"count":208,
			"type":"VEC3"
		},
		{
			"bufferView":30,
			"componentType":5126,
			"count":208,
			"type":"VEC2"
		},
		{
			"bufferView":31,
			"componentType":5126,
			"count":490,
			"max":[
				0.9052569270133972,
				2.149970769882202,
				0.9006081819534302
			],
			"min":[
				-0.8922064900398254,
				-5.3875508308410645,
				-0.8968549966812134
			],
			"type":"VEC3"
		},
		{
			"bufferView":32,
			"componentType":5126,
			"count":490,
			"type":"VEC3"
		},
		{
			"bufferView":33,
			"componentType":5126,
			"count":490,
			"type":"VEC2"
		},
		{
			"bufferView":34,
			"componentType":5126,
			"count":208,
			"max":[
				0.9823400378227234,
				1.1753976345062256,
				0.9949230551719666
			],
			"min":[
				-1.0176594257354736,
				-5.403257369995117,
				-1.0050770044326782
			],
			"type":"VEC3"
		},
		{
			"bufferView":35,
			"componentType":5126,
			"count":208,
			"type":"VEC3"
		},
		{
			"bufferView":36,
			"componentType":5126,
			"count":208,
			"type":"VEC2"
		},
		{
			"bufferView":37,
			"componentType":5126,
			"count":490,
			"max":[
				0.9052569270133972,
				2.149970769882202,
				0.9006081819534302
			],
			"min":[
				-0.8922064900398254,
				-5.3875508308410645,
				-0.8968549966812134
			],
			"type":"VEC3"
		},
		{
			"bufferView":38,
			"componentType":5126,
			"count":490,
			"type":"VEC3"
		},
		{
			"bufferView":39,
			"componentType":5126,
			"count":490,
			"type":"VEC2"
		}
	],
	"bufferViews":[
		{
			"buffer":0,
			"byteLength":4956,
			"byteOffset":0,
			"target":34962
		},
		{
			"buffer":0,
			"byteLength":4956,
			"byteOffset":4956,
			"target":34962
		},
		{
			"buffer":0,
			"byteLength":3304,
			"byteOffset":9912,
			"target":34962
		},
		{
			"buffer":0,
			"byteLength":2604,
			"byteOffset":13216,
			"target":34963
		},
		{
			"buffer":0,
			"byteLength":2304,
			"byteOffset":15820,
			"target":34962
		},
		{
			"buffer":0,
			"byteLength":2304,
			"byteOffset":18124,
			"target":34962
		},
		{
			"buffer":0,
			"byteLength":1536,
			"byteOffset":20428,
			"target":34962
		},
		{
			"buffer":0,
			"byteLength":744,
			"byteOffset":21964,
			"target":34963
		},
		{
			"buffer":0,
			"byteLength":2496,
			"byteOffset":22708,
			"target":34962
		},
		{
			"buffer":0,
			"byteLength":2496,
			"byteOffset":25204,
			"target":34962
		},
		{
			"buffer":0,
			"byteLength":1664,
			"byteOffset":27700,
			"target":34962
		},
		{
			"buffer":0,
			"byteLength":1716,
			"byteOffset":29364,
			"target":34963
		},
		{
			"buffer":0,
			"byteLength":5880,
			"byteOffset":31080,
			"target":34962
		},
		{
			"buffer":0,
			"byteLength":5880,
			"byteOffset":36960,
			"target":34962
		},
		{
			"buffer":0,
			"byteLength":3920,
			"byteOffset":42840,
			"target":34962
		},
		{
			"buffer":0,
			"byteLength":5160,
			"byteOffset":46760,
			"target":34963
		},
		{
			"buffer":0,
			"byteLength":2496,
			"byteOffset":51920,
			"target":34962
		},
		{
			"buffer":0,
			"byteLength":2496,
			"byteOffset":54416,
			"target":34962
		},
		{
			"buffer":0,
			"byteLength":1664,
			"byteOffset":56912,
			"target":34962
		},
		{
			"buffer":0,
			"byteLength":5880,
			"byteOffset":58576,
			"target":34962
		},
		{
			"buffer":0,
			"byteLength":5880,
			"byteOffset":64456,
			"target":34962
		},
		{
			"buffer":0,
			"byteLength":3920,
			"byteOffset":70336,
			"target":34962
		},
		{
			"buffer":0,
			"byteLength":4956,
			"byteOffset":74256,
			"target":34962
		},
		{
			"buffer":0,
			"byteLength":4956,
			"byteOffset":79212,
			"target":34962
		},
		{
			"buffer":0,
			"byteLength":3304,
			"byteOffset":84168,
			"target":34962
		},
		{
			"buffer":0,
			"byteLength":2304,
			"byteOffset":87472,
			"target":34962
		},
		{
			"buffer":0,
			"byteLength":2304,
			"byteOffset":89776,
			"target":34962
		},
		{
			"buffer":0,
			"byteLength":1536,
			"byteOffset":92080,
			"target":34962
		},
		{
			"buffer":0,
			"byteLength":2496,
			"byteOffset":93616,
			"target":34962
		},
		{
			"buffer":0,
			"byteLength":2496,
			"byteOffset":96112,
			"target":34962
		},
		{
			"buffer":0,
			"byteLength":1664,
			"byteOffset":98608,
			"target":34962
		},
		{
			"buffer":0,
			"byteLength":5880,
			"byteOffset":100272,
			"target":34962
		},
		{
			"buffer":0,
			"byteLength":5880,
			"byteOffset":106152,
			"target":34962
		},
		{
			"buffer":0,
			"byteLength":3920,
			"byteOffset":112032,
			"target":34962
		},
		{
			"buffer":0,
			"byteLength":2496,
			"byteOffset":115952,
			"target":34962
		},
		{
			"buffer":0,
			"byteLength":2496,
			"byteOffset":118448,
			"target":34962
		},
		{
			"buffer":0,
			"byteLength":1664,
			"byteOffset":120944,
			"target":34962
		},
		{
			"buffer":0,
			"byteLength":5880,
			"byteOffset":122608,
			"target":34962
		},
		{
			"buffer":0,
			"byteLength":5880,
			"byteOffset":128488,
			"target":34962
		},
		{
			"buffer":0,
			"byteLength":3920,
			"byteOffset":134368,
			"target":34962
		}
	],
	"buffers":[
		{
			"byteLength":138288,
			"uri":"2%D0%BA%D0%BD%D0%BE%D0%BF%D0%BA%D0%B8.bin"
		}
	]
}
