{
	"asset":{
		"generator":"Khronos glTF Blender I/O v4.0.44",
		"version":"2.0"
	},
	"scene":0,
	"scenes":[
		{
			"name":"Scene",
			"nodes":[
				0
			]
		}
	],
	"nodes":[
		{
			"mesh":0,
			"name":"Cube.006",
			"translation":[
				-12.899496078491211,
				18.317792892456055,
				9.177565574645996
			]
		}
	],
	"materials":[
		{
			"doubleSided":true,
			"name":"Material.021",
			"pbrMetallicRoughness":{
				"baseColorFactor":[
					0.18782059848308563,
					0.18782062828540802,
					0.18782080709934235,
					1
				],
				"metallicFactor":0,
				"roughnessFactor":0.5
			}
		},
		{
			"doubleSided":true,
			"name":"Material.022",
			"pbrMetallicRoughness":{
				"baseColorFactor":[
					0.0783751904964447,
					0.11524073779582977,
					0.8000000715255737,
					1
				],
				"metallicFactor":0,
				"roughnessFactor":0.5
			}
		},
		{
			"doubleSided":true,
			"name":"Material.023",
			"pbrMetallicRoughness":{
				"baseColorTexture":{
					"index":0
				},
				"metallicFactor":0,
				"roughnessFactor":0.5
			}
		}
	],
	"meshes":[
		{
			"name":"Cube.004",
			"primitives":[
				{
					"attributes":{
						"POSITION":0,
						"NORMAL":1,
						"TEXCOORD_0":2
					},
					"indices":3,
					"material":0
				},
				{
					"attributes":{
						"POSITION":4,
						"NORMAL":5,
						"TEXCOORD_0":6
					},
					"indices":7,
					"material":1
				},
				{
					"attributes":{
						"POSITION":8,
						"NORMAL":9,
						"TEXCOORD_0":10
					},
					"indices":11,
					"material":2
				}
			]
		}
	],
	"textures":[
		{
			"sampler":0,
			"source":0
		}
	],
	"images":[
		{
			"mimeType":"image/png",
			"name":"V",
			"uri":"V.png"
		}
	],
	"accessors":[
		{
			"bufferView":0,
			"componentType":5126,
			"count":104,
			"max":[
				1.0084517002105713,
				1,
				1
			],
			"min":[
				-1.001544713973999,
				-0.98968505859375,
				-0.9968843460083008
			],
			"type":"VEC3"
		},
		{
			"bufferView":1,
			"componentType":5126,
			"count":104,
			"type":"VEC3"
		},
		{
			"bufferView":2,
			"componentType":5126,
			"count":104,
			"type":"VEC2"
		},
		{
			"bufferView":3,
			"componentType":5123,
			"count":216,
			"type":"SCALAR"
		},
		{
			"bufferView":4,
			"componentType":5126,
			"count":4,
			"max":[
				0.7859666347503662,
				0.7131479978561401,
				0.5401827692985535
			],
			"min":[
				-0.7760040760040283,
				-0.23943902552127838,
				-0.0037325024604797363
			],
			"type":"VEC3"
		},
		{
			"bufferView":5,
			"componentType":5126,
			"count":4,
			"type":"VEC3"
		},
		{
			"bufferView":6,
			"componentType":5126,
			"count":4,
			"type":"VEC2"
		},
		{
			"bufferView":7,
			"componentType":5123,
			"count":6,
			"type":"SCALAR"
		},
		{
			"bufferView":8,
			"componentType":5126,
			"count":6,
			"max":[
				0.3922063708305359,
				-0.46930643916130066,
				-0.3094480633735657
			],
			"min":[
				-0.3842164874076843,
				-0.7134745717048645,
				-0.563395619392395
			],
			"type":"VEC3"
		},
		{
			"bufferView":9,
			"componentType":5126,
			"count":6,
			"type":"VEC3"
		},
		{
			"bufferView":10,
			"componentType":5126,
			"count":6,
			"type":"VEC2"
		},
		{
			"bufferView":11,
			"componentType":5123,
			"count":12,
			"type":"SCALAR"
		}
	],
	"bufferViews":[
		{
			"buffer":0,
			"byteLength":1248,
			"byteOffset":0,
			"target":34962
		},
		{
			"buffer":0,
			"byteLength":1248,
			"byteOffset":1248,
			"target":34962
		},
		{
			"buffer":0,
			"byteLength":832,
			"byteOffset":2496,
			"target":34962
		},
		{
			"buffer":0,
			"byteLength":432,
			"byteOffset":3328,
			"target":34963
		},
		{
			"buffer":0,
			"byteLength":48,
			"byteOffset":3760,
			"target":34962
		},
		{
			"buffer":0,
			"byteLength":48,
			"byteOffset":3808,
			"target":34962
		},
		{
			"buffer":0,
			"byteLength":32,
			"byteOffset":3856,
			"target":34962
		},
		{
			"buffer":0,
			"byteLength":12,
			"byteOffset":3888,
			"target":34963
		},
		{
			"buffer":0,
			"byteLength":72,
			"byteOffset":3900,
			"target":34962
		},
		{
			"buffer":0,
			"byteLength":72,
			"byteOffset":3972,
			"target":34962
		},
		{
			"buffer":0,
			"byteLength":48,
			"byteOffset":4044,
			"target":34962
		},
		{
			"buffer":0,
			"byteLength":24,
			"byteOffset":4092,
			"target":34963
		}
	],
	"samplers":[
		{
			"magFilter":9729,
			"minFilter":9987
		}
	],
	"buffers":[
		{
			"byteLength":4116,
			"uri":"%D0%B2%D0%BE%D0%BB%D1%8C%D1%82%D0%BC%D0%B5%D1%82%D1%80.bin"
		}
	]
}
