{
	"asset":{
		"generator":"Khronos glTF Blender I/O v4.0.44",
		"version":"2.0"
	},
	"extensionsUsed":[
		"KHR_materials_clearcoat"
	],
	"scene":0,
	"scenes":[
		{
			"name":"Scene",
			"nodes":[
				0
			]
		}
	],
	"nodes":[
		{
			"mesh":0,
			"name":"Cube",
			"scale":[
				0.7554206848144531,
				0.1779586672782898,
				0.7554206848144531
			],
			"translation":[
				-12.415932655334473,
				17.46715545654297,
				4.861204624176025
			]
		}
	],
	"materials":[
		{
			"doubleSided":true,
			"extensions":{
				"KHR_materials_clearcoat":{
					"clearcoatFactor":0.17818181216716766,
					"clearcoatRoughnessFactor":0.029999999329447746
				}
			},
			"name":"Material.026",
			"pbrMetallicRoughness":{
				"baseColorFactor":[
					0.590099036693573,
					0.590099036693573,
					0.590099036693573,
					1
				],
				"metallicFactor":0,
				"roughnessFactor":0.5109090805053711
			}
		}
	],
	"meshes":[
		{
			"name":"Cube.008",
			"primitives":[
				{
					"attributes":{
						"POSITION":0,
						"NORMAL":1,
						"TEXCOORD_0":2
					},
					"indices":3,
					"material":0
				}
			]
		}
	],
	"accessors":[
		{
			"bufferView":0,
			"componentType":5126,
			"count":413,
			"max":[
				1,
				1.3398751020431519,
				1
			],
			"min":[
				-1,
				-1,
				-1
			],
			"type":"VEC3"
		},
		{
			"bufferView":1,
			"componentType":5126,
			"count":413,
			"type":"VEC3"
		},
		{
			"bufferView":2,
			"componentType":5126,
			"count":413,
			"type":"VEC2"
		},
		{
			"bufferView":3,
			"componentType":5123,
			"count":1302,
			"type":"SCALAR"
		}
	],
	"bufferViews":[
		{
			"buffer":0,
			"byteLength":4956,
			"byteOffset":0,
			"target":34962
		},
		{
			"buffer":0,
			"byteLength":4956,
			"byteOffset":4956,
			"target":34962
		},
		{
			"buffer":0,
			"byteLength":3304,
			"byteOffset":9912,
			"target":34962
		},
		{
			"buffer":0,
			"byteLength":2604,
			"byteOffset":13216,
			"target":34963
		}
	],
	"buffers":[
		{
			"byteLength":15820,
			"uri":"BaseButton2.bin"
		}
	]
}
