{
	"asset":{
		"generator":"Khronos glTF Blender I/O v4.0.44",
		"version":"2.0"
	},
	"scene":0,
	"scenes":[
		{
			"name":"Scene",
			"nodes":[
				0
			]
		}
	],
	"nodes":[
		{
			"mesh":0,
			"name":"Cylinder.010",
			"scale":[
				0.23179557919502258,
				0.23179557919502258,
				0.23179557919502258
			],
			"translation":[
				-1.6904689073562622,
				17.50676155090332,
				5.663559436798096
			]
		}
	],
	"materials":[
		{
			"doubleSided":true,
			"name":"Iron with Splashed Paint",
			"normalTexture":{
				"index":0,
				"texCoord":1
			},
			"pbrMetallicRoughness":{
				"baseColorTexture":{
					"index":1,
					"texCoord":1
				},
				"metallicRoughnessTexture":{
					"index":2,
					"texCoord":1
				}
			}
		}
	],
	"meshes":[
		{
			"name":"Cylinder",
			"primitives":[
				{
					"attributes":{
						"POSITION":0,
						"NORMAL":1,
						"TEXCOORD_0":2,
						"TEXCOORD_1":3
					},
					"indices":4,
					"material":0
				}
			]
		}
	],
	"textures":[
		{
			"sampler":0,
			"source":0
		},
		{
			"sampler":0,
			"source":1
		},
		{
			"sampler":0,
			"source":2
		}
	],
	"images":[
		{
			"mimeType":"image/jpeg",
			"name":"Splash_Paint_Metal_Normal",
			"uri":"Splash_Paint_Metal_Normal.jpg"
		},
		{
			"mimeType":"image/jpeg",
			"name":"Splash_Paint_Metal_BaseColor",
			"uri":"Splash_Paint_Metal_BaseColor.jpg"
		},
		{
			"mimeType":"image/png",
			"name":"Splash_Paint_Metal_Metallic-Splash_Paint_Metal_Roughness",
			"uri":"Splash_Paint_Metal_Metallic-Splash_Paint_Metal_Roughness.png"
		}
	],
	"accessors":[
		{
			"bufferView":0,
			"componentType":5126,
			"count":173,
			"max":[
				0.7672592401504517,
				2.7072458267211914,
				0.7672593593597412
			],
			"min":[
				-0.7672594785690308,
				-0.7672562599182129,
				-0.7672593593597412
			],
			"type":"VEC3"
		},
		{
			"bufferView":1,
			"componentType":5126,
			"count":173,
			"type":"VEC3"
		},
		{
			"bufferView":2,
			"componentType":5126,
			"count":173,
			"type":"VEC2"
		},
		{
			"bufferView":3,
			"componentType":5126,
			"count":173,
			"type":"VEC2"
		},
		{
			"bufferView":4,
			"componentType":5123,
			"count":564,
			"type":"SCALAR"
		}
	],
	"bufferViews":[
		{
			"buffer":0,
			"byteLength":2076,
			"byteOffset":0,
			"target":34962
		},
		{
			"buffer":0,
			"byteLength":2076,
			"byteOffset":2076,
			"target":34962
		},
		{
			"buffer":0,
			"byteLength":1384,
			"byteOffset":4152,
			"target":34962
		},
		{
			"buffer":0,
			"byteLength":1384,
			"byteOffset":5536,
			"target":34962
		},
		{
			"buffer":0,
			"byteLength":1128,
			"byteOffset":6920,
			"target":34963
		}
	],
	"samplers":[
		{
			"magFilter":9729,
			"minFilter":9987
		}
	],
	"buffers":[
		{
			"byteLength":8048,
			"uri":"Bullet.bin"
		}
	]
}
