{
	"asset":{
		"generator":"Khronos glTF Blender I/O v4.0.44",
		"version":"2.0"
	},
	"scene":0,
	"scenes":[
		{
			"name":"Scene",
			"nodes":[
				0
			]
		}
	],
	"nodes":[
		{
			"mesh":0,
			"name":"\u041d\u043e\u0436\u043a\u0430 \u043f\u0443\u0448\u043a\u0438 1",
			"scale":[
				0.32110899686813354,
				1.148193597793579,
				1.148193597793579
			],
			"translation":[
				5.854783058166504,
				18.456235885620117,
				6.670013427734375
			]
		}
	],
	"materials":[
		{
			"doubleSided":true,
			"name":"Material.003",
			"pbrMetallicRoughness":{
				"baseColorTexture":{
					"index":0,
					"texCoord":1
				},
				"metallicFactor":0,
				"roughnessFactor":0.5
			}
		},
		{
			"doubleSided":true,
			"name":"Material.004",
			"pbrMetallicRoughness":{
				"baseColorTexture":{
					"index":1,
					"texCoord":1
				},
				"metallicFactor":0,
				"roughnessFactor":0.5
			}
		}
	],
	"meshes":[
		{
			"name":"\u041d\u043e\u0436\u043a\u0430 \u043f\u0443\u0448\u043a\u0438 1",
			"primitives":[
				{
					"attributes":{
						"POSITION":0,
						"NORMAL":1,
						"TEXCOORD_0":2,
						"TEXCOORD_1":3
					},
					"indices":4,
					"material":0
				},
				{
					"attributes":{
						"POSITION":5,
						"NORMAL":6,
						"TEXCOORD_0":7,
						"TEXCOORD_1":8
					},
					"indices":4,
					"material":1
				}
			]
		}
	],
	"textures":[
		{
			"sampler":0,
			"source":0
		},
		{
			"sampler":0,
			"source":0
		}
	],
	"images":[
		{
			"mimeType":"image/jpeg",
			"name":"\u0434\u0435\u0440\u0435\u0432\u043e",
			"uri":"%D0%B4%D0%B5%D1%80%D0%B5%D0%B2%D0%BE.jpg"
		}
	],
	"accessors":[
		{
			"bufferView":0,
			"componentType":5126,
			"count":93,
			"max":[
				1,
				1,
				1
			],
			"min":[
				-1,
				-1,
				-1
			],
			"type":"VEC3"
		},
		{
			"bufferView":1,
			"componentType":5126,
			"count":93,
			"type":"VEC3"
		},
		{
			"bufferView":2,
			"componentType":5126,
			"count":93,
			"type":"VEC2"
		},
		{
			"bufferView":3,
			"componentType":5126,
			"count":93,
			"type":"VEC2"
		},
		{
			"bufferView":4,
			"componentType":5123,
			"count":216,
			"type":"SCALAR"
		},
		{
			"bufferView":5,
			"componentType":5126,
			"count":93,
			"max":[
				-18.97440528869629,
				1.0000001192092896,
				1.0000001192092896
			],
			"min":[
				-20.97440528869629,
				-1.0000001192092896,
				-1.0000001192092896
			],
			"type":"VEC3"
		},
		{
			"bufferView":6,
			"componentType":5126,
			"count":93,
			"type":"VEC3"
		},
		{
			"bufferView":7,
			"componentType":5126,
			"count":93,
			"type":"VEC2"
		},
		{
			"bufferView":8,
			"componentType":5126,
			"count":93,
			"type":"VEC2"
		}
	],
	"bufferViews":[
		{
			"buffer":0,
			"byteLength":1116,
			"byteOffset":0,
			"target":34962
		},
		{
			"buffer":0,
			"byteLength":1116,
			"byteOffset":1116,
			"target":34962
		},
		{
			"buffer":0,
			"byteLength":744,
			"byteOffset":2232,
			"target":34962
		},
		{
			"buffer":0,
			"byteLength":744,
			"byteOffset":2976,
			"target":34962
		},
		{
			"buffer":0,
			"byteLength":432,
			"byteOffset":3720,
			"target":34963
		},
		{
			"buffer":0,
			"byteLength":1116,
			"byteOffset":4152,
			"target":34962
		},
		{
			"buffer":0,
			"byteLength":1116,
			"byteOffset":5268,
			"target":34962
		},
		{
			"buffer":0,
			"byteLength":744,
			"byteOffset":6384,
			"target":34962
		},
		{
			"buffer":0,
			"byteLength":744,
			"byteOffset":7128,
			"target":34962
		}
	],
	"samplers":[
		{
			"magFilter":9729,
			"minFilter":9987
		}
	],
	"buffers":[
		{
			"byteLength":7872,
			"uri":"CannonArms.bin"
		}
	]
}
