{
	"asset":{
		"generator":"Khronos glTF Blender I/O v4.0.44",
		"version":"2.0"
	},
	"scene":0,
	"scenes":[
		{
			"name":"Scene",
			"nodes":[
				0
			]
		}
	],
	"nodes":[
		{
			"mesh":0,
			"name":"\u041e\u0441\u043d\u043e\u0432\u0430 \u043a\u043e\u043d\u0442\u0430\u043a\u0442\u0430 2.002",
			"rotation":[
				0,
				0,
				1,
				8.742278367890322e-08
			],
			"scale":[
				-0.09371306002140045,
				-0.0014007198624312878,
				-0.09371306002140045
			],
			"translation":[
				-3.6223864555358887,
				17.547964096069336,
				6.870567321777344
			]
		}
	],
	"materials":[
		{
			"doubleSided":true,
			"name":"Material.007",
			"pbrMetallicRoughness":{
				"baseColorFactor":[
					0.8000000715255737,
					0.7956519722938538,
					0.19082802534103394,
					1
				],
				"metallicFactor":0,
				"roughnessFactor":0.5
			}
		},
		{
			"doubleSided":true,
			"name":"Material.009",
			"pbrMetallicRoughness":{
				"baseColorFactor":[
					0.8000000715255737,
					0.004227735567837954,
					0.01766521856188774,
					1
				],
				"metallicFactor":0,
				"roughnessFactor":0.5
			}
		},
		{
			"doubleSided":true,
			"name":"Material.004",
			"pbrMetallicRoughness":{
				"baseColorTexture":{
					"index":0
				},
				"metallicFactor":0,
				"roughnessFactor":0.5
			}
		},
		{
			"doubleSided":true,
			"name":"Material.006",
			"pbrMetallicRoughness":{
				"baseColorFactor":[
					0.011663411743938923,
					0.1726474165916443,
					0.028875449672341347,
					1
				],
				"metallicFactor":0,
				"roughnessFactor":0.5
			}
		}
	],
	"meshes":[
		{
			"name":"\u041e\u0441\u043d\u043e\u0432\u0430 \u043a\u043e\u043d\u0442\u0430\u043a\u0442\u0430 2.003",
			"primitives":[
				{
					"attributes":{
						"POSITION":0,
						"NORMAL":1,
						"TEXCOORD_0":2
					},
					"indices":3,
					"material":0
				},
				{
					"attributes":{
						"POSITION":4,
						"NORMAL":5,
						"TEXCOORD_0":6
					},
					"indices":7,
					"material":1
				},
				{
					"attributes":{
						"POSITION":8,
						"NORMAL":9,
						"TEXCOORD_0":10
					},
					"indices":11,
					"material":2
				},
				{
					"attributes":{
						"POSITION":12,
						"NORMAL":13,
						"TEXCOORD_0":14
					},
					"indices":15,
					"material":3
				}
			]
		}
	],
	"textures":[
		{
			"sampler":0,
			"source":0
		}
	],
	"images":[
		{
			"mimeType":"image/jpeg",
			"name":"\u0434\u0435\u0440\u0435\u0432\u043e",
			"uri":"%D0%B4%D0%B5%D1%80%D0%B5%D0%B2%D0%BE.jpg"
		}
	],
	"accessors":[
		{
			"bufferView":0,
			"componentType":5126,
			"count":1472,
			"max":[
				4.843292236328125,
				47.7471923828125,
				8.023346900939941
			],
			"min":[
				-1,
				-1.0001733303070068,
				-1
			],
			"type":"VEC3"
		},
		{
			"bufferView":1,
			"componentType":5126,
			"count":1472,
			"type":"VEC3"
		},
		{
			"bufferView":2,
			"componentType":5126,
			"count":1472,
			"type":"VEC2"
		},
		{
			"bufferView":3,
			"componentType":5123,
			"count":6066,
			"type":"SCALAR"
		},
		{
			"bufferView":4,
			"componentType":5126,
			"count":416,
			"max":[
				4.774858474731445,
				42.24689483642578,
				0.9246479272842407
			],
			"min":[
				-0.9177285432815552,
				5.118233680725098,
				-0.9246469736099243
			],
			"type":"VEC3"
		},
		{
			"bufferView":5,
			"componentType":5126,
			"count":416,
			"type":"VEC3"
		},
		{
			"bufferView":6,
			"componentType":5126,
			"count":416,
			"type":"VEC2"
		},
		{
			"bufferView":7,
			"componentType":5123,
			"count":1716,
			"type":"SCALAR"
		},
		{
			"bufferView":8,
			"componentType":5126,
			"count":96,
			"max":[
				8.243167877197266,
				-1.973602294921875,
				8.685041427612305
			],
			"min":[
				-4.290752410888672,
				-157.7435302734375,
				-4.527329444885254
			],
			"type":"VEC3"
		},
		{
			"bufferView":9,
			"componentType":5126,
			"count":96,
			"type":"VEC3"
		},
		{
			"bufferView":10,
			"componentType":5126,
			"count":96,
			"type":"VEC2"
		},
		{
			"bufferView":11,
			"componentType":5123,
			"count":144,
			"type":"SCALAR"
		},
		{
			"bufferView":12,
			"componentType":5126,
			"count":48,
			"max":[
				8.046086311340332,
				177.447265625,
				8.148736000061035
			],
			"min":[
				-4.093671798706055,
				-1.9285202026367188,
				-3.9910221099853516
			],
			"type":"VEC3"
		},
		{
			"bufferView":13,
			"componentType":5126,
			"count":48,
			"type":"VEC3"
		},
		{
			"bufferView":14,
			"componentType":5126,
			"count":48,
			"type":"VEC2"
		},
		{
			"bufferView":15,
			"componentType":5123,
			"count":72,
			"type":"SCALAR"
		}
	],
	"bufferViews":[
		{
			"buffer":0,
			"byteLength":17664,
			"byteOffset":0,
			"target":34962
		},
		{
			"buffer":0,
			"byteLength":17664,
			"byteOffset":17664,
			"target":34962
		},
		{
			"buffer":0,
			"byteLength":11776,
			"byteOffset":35328,
			"target":34962
		},
		{
			"buffer":0,
			"byteLength":12132,
			"byteOffset":47104,
			"target":34963
		},
		{
			"buffer":0,
			"byteLength":4992,
			"byteOffset":59236,
			"target":34962
		},
		{
			"buffer":0,
			"byteLength":4992,
			"byteOffset":64228,
			"target":34962
		},
		{
			"buffer":0,
			"byteLength":3328,
			"byteOffset":69220,
			"target":34962
		},
		{
			"buffer":0,
			"byteLength":3432,
			"byteOffset":72548,
			"target":34963
		},
		{
			"buffer":0,
			"byteLength":1152,
			"byteOffset":75980,
			"target":34962
		},
		{
			"buffer":0,
			"byteLength":1152,
			"byteOffset":77132,
			"target":34962
		},
		{
			"buffer":0,
			"byteLength":768,
			"byteOffset":78284,
			"target":34962
		},
		{
			"buffer":0,
			"byteLength":288,
			"byteOffset":79052,
			"target":34963
		},
		{
			"buffer":0,
			"byteLength":576,
			"byteOffset":79340,
			"target":34962
		},
		{
			"buffer":0,
			"byteLength":576,
			"byteOffset":79916,
			"target":34962
		},
		{
			"buffer":0,
			"byteLength":384,
			"byteOffset":80492,
			"target":34962
		},
		{
			"buffer":0,
			"byteLength":144,
			"byteOffset":80876,
			"target":34963
		}
	],
	"samplers":[
		{
			"magFilter":9729,
			"minFilter":9987
		}
	],
	"buffers":[
		{
			"byteLength":81020,
			"uri":"%D0%9F%D0%BB%D0%B0%D1%82%D0%B0_%D0%BA%D0%BE%D0%BD%D0%B4%D0%B5%D1%80%D0%B0.bin"
		}
	]
}
