{
	"asset":{
		"generator":"Khronos glTF Blender I/O v4.0.44",
		"version":"2.0"
	},
	"scene":0,
	"scenes":[
		{
			"name":"Scene",
			"nodes":[
				0
			]
		}
	],
	"nodes":[
		{
			"mesh":0,
			"name":"Cylinder.005",
			"rotation":[
				-0.9999860525131226,
				0.005287869367748499,
				0,
				8.781641440691601e-07
			],
			"scale":[
				0.5115382075309753,
				0.5115382075309753,
				0.5115381479263306
			],
			"translation":[
				-3.4459142684936523,
				18.179210662841797,
				6.849098205566406
			]
		}
	],
	"materials":[
		{
			"doubleSided":true,
			"name":"Material.018",
			"pbrMetallicRoughness":{
				"baseColorFactor":[
					0.2512558102607727,
					0.24382776021957397,
					0.25304874777793884,
					1
				],
				"metallicFactor":0,
				"roughnessFactor":0.5
			}
		},
		{
			"doubleSided":true,
			"name":"Material.019",
			"pbrMetallicRoughness":{
				"baseColorTexture":{
					"index":0
				},
				"metallicFactor":0,
				"roughnessFactor":0.5
			}
		}
	],
	"meshes":[
		{
			"name":"Cylinder.013",
			"primitives":[
				{
					"attributes":{
						"POSITION":0,
						"NORMAL":1,
						"TEXCOORD_0":2
					},
					"indices":3,
					"material":0
				},
				{
					"attributes":{
						"POSITION":4,
						"NORMAL":5,
						"TEXCOORD_0":6
					},
					"indices":7,
					"material":1
				}
			]
		}
	],
	"textures":[
		{
			"sampler":0,
			"source":0
		}
	],
	"images":[
		{
			"mimeType":"image/png",
			"name":"CONDR2",
			"uri":"CONDR2.png"
		}
	],
	"accessors":[
		{
			"bufferView":0,
			"componentType":5126,
			"count":316,
			"max":[
				0.7788569331169128,
				1.1224583387374878,
				0.7783458828926086
			],
			"min":[
				-1,
				-1.8853211402893066,
				-0.7783460021018982
			],
			"type":"VEC3"
		},
		{
			"bufferView":1,
			"componentType":5126,
			"count":316,
			"type":"VEC3"
		},
		{
			"bufferView":2,
			"componentType":5126,
			"count":316,
			"type":"VEC2"
		},
		{
			"bufferView":3,
			"componentType":5123,
			"count":882,
			"type":"SCALAR"
		},
		{
			"bufferView":4,
			"componentType":5126,
			"count":1269,
			"max":[
				1,
				1,
				1
			],
			"min":[
				-0.9848077297210693,
				-1.8853211402893066,
				-1
			],
			"type":"VEC3"
		},
		{
			"bufferView":5,
			"componentType":5126,
			"count":1269,
			"type":"VEC3"
		},
		{
			"bufferView":6,
			"componentType":5126,
			"count":1269,
			"type":"VEC2"
		},
		{
			"bufferView":7,
			"componentType":5123,
			"count":4344,
			"type":"SCALAR"
		}
	],
	"bufferViews":[
		{
			"buffer":0,
			"byteLength":3792,
			"byteOffset":0,
			"target":34962
		},
		{
			"buffer":0,
			"byteLength":3792,
			"byteOffset":3792,
			"target":34962
		},
		{
			"buffer":0,
			"byteLength":2528,
			"byteOffset":7584,
			"target":34962
		},
		{
			"buffer":0,
			"byteLength":1764,
			"byteOffset":10112,
			"target":34963
		},
		{
			"buffer":0,
			"byteLength":15228,
			"byteOffset":11876,
			"target":34962
		},
		{
			"buffer":0,
			"byteLength":15228,
			"byteOffset":27104,
			"target":34962
		},
		{
			"buffer":0,
			"byteLength":10152,
			"byteOffset":42332,
			"target":34962
		},
		{
			"buffer":0,
			"byteLength":8688,
			"byteOffset":52484,
			"target":34963
		}
	],
	"samplers":[
		{
			"magFilter":9729,
			"minFilter":9987
		}
	],
	"buffers":[
		{
			"byteLength":61172,
			"uri":"Capacitor.bin"
		}
	]
}
