{
	"asset":{
		"generator":"Khronos glTF Blender I/O v4.0.44",
		"version":"2.0"
	},
	"scene":0,
	"scenes":[
		{
			"name":"Scene",
			"nodes":[
				0
			]
		}
	],
	"nodes":[
		{
			"mesh":0,
			"name":"\u041a\u0430\u0442\u0443\u0448\u043a\u0430",
			"scale":[
				0.043685734272003174,
				0.038140926510095596,
				0.038140926510095596
			],
			"translation":[
				0.4225492477416992,
				19.535390853881836,
				6.652336597442627
			]
		}
	],
	"materials":[
		{
			"doubleSided":true,
			"name":"Material.010",
			"pbrMetallicRoughness":{
				"baseColorFactor":[
					0.8000000715255737,
					0.26080048084259033,
					0.03774421289563179,
					1
				],
				"metallicFactor":0,
				"roughnessFactor":0.5
			}
		}
	],
	"meshes":[
		{
			"name":"Circle",
			"primitives":[
				{
					"attributes":{
						"POSITION":0,
						"NORMAL":1,
						"TEXCOORD_0":2
					},
					"indices":3,
					"material":0
				}
			]
		}
	],
	"accessors":[
		{
			"bufferView":0,
			"componentType":5126,
			"count":9504,
			"max":[
				14.171456336975098,
				6.49737548828125,
				6.880650997161865
			],
			"min":[
				-14.231895446777344,
				-6.643928527832031,
				-24.40586280822754
			],
			"type":"VEC3"
		},
		{
			"bufferView":1,
			"componentType":5126,
			"count":9504,
			"type":"VEC3"
		},
		{
			"bufferView":2,
			"componentType":5126,
			"count":9504,
			"type":"VEC2"
		},
		{
			"bufferView":3,
			"componentType":5123,
			"count":56832,
			"type":"SCALAR"
		}
	],
	"bufferViews":[
		{
			"buffer":0,
			"byteLength":114048,
			"byteOffset":0,
			"target":34962
		},
		{
			"buffer":0,
			"byteLength":114048,
			"byteOffset":114048,
			"target":34962
		},
		{
			"buffer":0,
			"byteLength":76032,
			"byteOffset":228096,
			"target":34962
		},
		{
			"buffer":0,
			"byteLength":113664,
			"byteOffset":304128,
			"target":34963
		}
	],
	"buffers":[
		{
			"byteLength":417792,
			"uri":"Coil.bin"
		}
	]
}
