{
	"asset":{
		"generator":"Khronos glTF Blender I/O v4.0.44",
		"version":"2.0"
	},
	"scene":0,
	"scenes":[
		{
			"name":"Scene",
			"nodes":[
				0
			]
		}
	],
	"nodes":[
		{
			"mesh":0,
			"name":"\u0418\u0437\u043e\u043b\u044f\u0442\u043e\u0440 \u043a\u043e\u043d\u0442\u0430\u043a\u0442\u0430 #1.005",
			"rotation":[
				0,
				-0.7071068286895752,
				-0.7071068286895752,
				0
			],
			"scale":[
				-0.04391075670719147,
				-0.0181572288274765,
				-0.04391075670719147
			],
			"translation":[
				0.04509687423706055,
				19.581947326660156,
				5.688750267028809
			]
		}
	],
	"materials":[
		{
			"doubleSided":true,
			"name":"Material.009",
			"pbrMetallicRoughness":{
				"baseColorFactor":[
					0.8000000715255737,
					0.004227735567837954,
					0.01766521856188774,
					1
				],
				"metallicFactor":0,
				"roughnessFactor":0.5
			}
		},
		{
			"doubleSided":true,
			"name":"Material.007",
			"pbrMetallicRoughness":{
				"baseColorFactor":[
					0.8000000715255737,
					0.7956519722938538,
					0.19082802534103394,
					1
				],
				"metallicFactor":0,
				"roughnessFactor":0.5
			}
		}
	],
	"meshes":[
		{
			"name":"\u0418\u0437\u043e\u043b\u044f\u0442\u043e\u0440 \u043a\u043e\u043d\u0442\u0430\u043a\u0442\u0430 #1.005",
			"primitives":[
				{
					"attributes":{
						"POSITION":0,
						"NORMAL":1,
						"TEXCOORD_0":2
					},
					"indices":3,
					"material":0
				},
				{
					"attributes":{
						"POSITION":4,
						"NORMAL":5,
						"TEXCOORD_0":6
					},
					"indices":7,
					"material":1
				}
			]
		}
	],
	"accessors":[
		{
			"bufferView":0,
			"componentType":5126,
			"count":208,
			"max":[
				15.552047729492188,
				5.578655242919922,
				1.0000563859939575
			],
			"min":[
				13.552047729492188,
				-1,
				-0.9999434947967529
			],
			"type":"VEC3"
		},
		{
			"bufferView":1,
			"componentType":5126,
			"count":208,
			"type":"VEC3"
		},
		{
			"bufferView":2,
			"componentType":5126,
			"count":208,
			"type":"VEC2"
		},
		{
			"bufferView":3,
			"componentType":5123,
			"count":858,
			"type":"SCALAR"
		},
		{
			"bufferView":4,
			"componentType":5126,
			"count":490,
			"max":[
				15.474964141845703,
				6.553228378295898,
				0.9056851267814636
			],
			"min":[
				13.677501678466797,
				-0.9842934608459473,
				-0.8917780518531799
			],
			"type":"VEC3"
		},
		{
			"bufferView":5,
			"componentType":5126,
			"count":490,
			"type":"VEC3"
		},
		{
			"bufferView":6,
			"componentType":5126,
			"count":490,
			"type":"VEC2"
		},
		{
			"bufferView":7,
			"componentType":5123,
			"count":2580,
			"type":"SCALAR"
		}
	],
	"bufferViews":[
		{
			"buffer":0,
			"byteLength":2496,
			"byteOffset":0,
			"target":34962
		},
		{
			"buffer":0,
			"byteLength":2496,
			"byteOffset":2496,
			"target":34962
		},
		{
			"buffer":0,
			"byteLength":1664,
			"byteOffset":4992,
			"target":34962
		},
		{
			"buffer":0,
			"byteLength":1716,
			"byteOffset":6656,
			"target":34963
		},
		{
			"buffer":0,
			"byteLength":5880,
			"byteOffset":8372,
			"target":34962
		},
		{
			"buffer":0,
			"byteLength":5880,
			"byteOffset":14252,
			"target":34962
		},
		{
			"buffer":0,
			"byteLength":3920,
			"byteOffset":20132,
			"target":34962
		},
		{
			"buffer":0,
			"byteLength":5160,
			"byteOffset":24052,
			"target":34963
		}
	],
	"buffers":[
		{
			"byteLength":29212,
			"uri":"Contact1.bin"
		}
	]
}
