{
	"asset":{
		"generator":"Khronos glTF Blender I/O v4.0.44",
		"version":"2.0"
	},
	"scene":0,
	"scenes":[
		{
			"name":"Scene",
			"nodes":[
				0
			]
		}
	],
	"nodes":[
		{
			"mesh":0,
			"name":"\u041e\u0441\u043d\u043e\u0432\u0430 \u043a\u043e\u043d\u0442\u0430\u043a\u0442\u0430 2.001",
			"rotation":[
				0,
				0.70699143409729,
				0.7072221636772156,
				1.0396730232287155e-07
			],
			"scale":[
				-0.09920508414506912,
				-0.006720764096826315,
				-0.09920507669448853
			],
			"translation":[
				-3.241415500640869,
				17.661941528320312,
				6.122932434082031
			]
		}
	],
	"materials":[
		{
			"doubleSided":true,
			"name":"Material.007",
			"pbrMetallicRoughness":{
				"baseColorFactor":[
					0.8000000715255737,
					0.7956519722938538,
					0.19082802534103394,
					1
				],
				"metallicFactor":0,
				"roughnessFactor":0.5
			}
		},
		{
			"doubleSided":true,
			"name":"Material.009",
			"pbrMetallicRoughness":{
				"baseColorFactor":[
					0.8000000715255737,
					0.004227735567837954,
					0.01766521856188774,
					1
				],
				"metallicFactor":0,
				"roughnessFactor":0.5
			}
		}
	],
	"meshes":[
		{
			"name":"\u041e\u0441\u043d\u043e\u0432\u0430 \u043a\u043e\u043d\u0442\u0430\u043a\u0442\u0430 2.002",
			"primitives":[
				{
					"attributes":{
						"POSITION":0,
						"NORMAL":1,
						"TEXCOORD_0":2
					},
					"indices":3,
					"material":0
				},
				{
					"attributes":{
						"POSITION":4,
						"NORMAL":5,
						"TEXCOORD_0":6
					},
					"indices":7,
					"material":1
				}
			]
		}
	],
	"accessors":[
		{
			"bufferView":0,
			"componentType":5126,
			"count":682,
			"max":[
				1,
				47.7471923828125,
				1
			],
			"min":[
				-1,
				-1,
				-1
			],
			"type":"VEC3"
		},
		{
			"bufferView":1,
			"componentType":5126,
			"count":682,
			"type":"VEC3"
		},
		{
			"bufferView":2,
			"componentType":5126,
			"count":682,
			"type":"VEC2"
		},
		{
			"bufferView":3,
			"componentType":5123,
			"count":2952,
			"type":"SCALAR"
		},
		{
			"bufferView":4,
			"componentType":5126,
			"count":208,
			"max":[
				0.9315663576126099,
				42.24689483642578,
				0.9246479272842407
			],
			"min":[
				-0.9177285432815552,
				5.118407726287842,
				-0.9246469736099243
			],
			"type":"VEC3"
		},
		{
			"bufferView":5,
			"componentType":5126,
			"count":208,
			"type":"VEC3"
		},
		{
			"bufferView":6,
			"componentType":5126,
			"count":208,
			"type":"VEC2"
		},
		{
			"bufferView":7,
			"componentType":5123,
			"count":858,
			"type":"SCALAR"
		}
	],
	"bufferViews":[
		{
			"buffer":0,
			"byteLength":8184,
			"byteOffset":0,
			"target":34962
		},
		{
			"buffer":0,
			"byteLength":8184,
			"byteOffset":8184,
			"target":34962
		},
		{
			"buffer":0,
			"byteLength":5456,
			"byteOffset":16368,
			"target":34962
		},
		{
			"buffer":0,
			"byteLength":5904,
			"byteOffset":21824,
			"target":34963
		},
		{
			"buffer":0,
			"byteLength":2496,
			"byteOffset":27728,
			"target":34962
		},
		{
			"buffer":0,
			"byteLength":2496,
			"byteOffset":30224,
			"target":34962
		},
		{
			"buffer":0,
			"byteLength":1664,
			"byteOffset":32720,
			"target":34962
		},
		{
			"buffer":0,
			"byteLength":1716,
			"byteOffset":34384,
			"target":34963
		}
	],
	"buffers":[
		{
			"byteLength":36100,
			"uri":"%D0%9A%D0%BE%D0%BD%D1%82%D0%B0%D0%BA%D1%822_%D0%BA%D0%BE%D0%BD%D0%B4%D0%B5%D1%80%D0%B0.bin"
		}
	]
}
