{
	"asset":{
		"generator":"Khronos glTF Blender I/O v4.0.44",
		"version":"2.0"
	},
	"scene":0,
	"scenes":[
		{
			"name":"Scene",
			"nodes":[
				0
			]
		}
	],
	"nodes":[
		{
			"mesh":0,
			"name":"Cube.003",
			"scale":[
				0.08443720638751984,
				0.08443720638751984,
				0.08147760480642319
			],
			"translation":[
				-10.01077938079834,
				17.417749404907227,
				4.882596969604492
			]
		}
	],
	"materials":[
		{
			"doubleSided":true,
			"name":"Teak Wood 01",
			"normalTexture":{
				"index":0
			},
			"pbrMetallicRoughness":{
				"baseColorTexture":{
					"index":1
				},
				"metallicFactor":0,
				"metallicRoughnessTexture":{
					"index":2
				}
			}
		},
		{
			"doubleSided":true,
			"name":"Material.006",
			"pbrMetallicRoughness":{
				"baseColorFactor":[
					0.011663411743938923,
					0.1726474165916443,
					0.028875449672341347,
					1
				],
				"metallicFactor":0,
				"roughnessFactor":0.5
			}
		},
		{
			"doubleSided":true,
			"name":"Material.024",
			"pbrMetallicRoughness":{
				"baseColorFactor":[
					0.4498867690563202,
					0.4498867690563202,
					0.4498867690563202,
					1
				],
				"metallicFactor":0,
				"roughnessFactor":0.5
			}
		},
		{
			"doubleSided":true,
			"name":"Material.007",
			"pbrMetallicRoughness":{
				"baseColorFactor":[
					0.8000000715255737,
					0.7956519722938538,
					0.19082802534103394,
					1
				],
				"metallicFactor":0,
				"roughnessFactor":0.5
			}
		},
		{
			"doubleSided":true,
			"name":"Material.001",
			"pbrMetallicRoughness":{
				"baseColorFactor":[
					0.38209161162376404,
					0.38209161162376404,
					0.38209161162376404,
					1
				],
				"metallicFactor":0,
				"roughnessFactor":0.5
			}
		},
		{
			"doubleSided":true,
			"name":"Material.015",
			"pbrMetallicRoughness":{
				"baseColorFactor":[
					0,
					0,
					0,
					1
				],
				"metallicFactor":0,
				"roughnessFactor":0.5
			}
		},
		{
			"doubleSided":true,
			"name":"Material.012",
			"pbrMetallicRoughness":{
				"baseColorFactor":[
					0.16146259009838104,
					0.16146259009838104,
					0.16146259009838104,
					1
				],
				"metallicFactor":0,
				"roughnessFactor":0.5
			}
		}
	],
	"meshes":[
		{
			"name":"Cube.006",
			"primitives":[
				{
					"attributes":{
						"POSITION":0,
						"NORMAL":1,
						"TEXCOORD_0":2
					},
					"indices":3,
					"material":0
				},
				{
					"attributes":{
						"POSITION":4,
						"NORMAL":5,
						"TEXCOORD_0":6
					},
					"indices":7,
					"material":1
				},
				{
					"attributes":{
						"POSITION":8,
						"NORMAL":9,
						"TEXCOORD_0":10
					},
					"indices":11,
					"material":2
				},
				{
					"attributes":{
						"POSITION":12,
						"NORMAL":13,
						"TEXCOORD_0":14
					},
					"indices":15,
					"material":3
				},
				{
					"attributes":{
						"POSITION":16,
						"NORMAL":17,
						"TEXCOORD_0":18
					},
					"indices":19,
					"material":4
				},
				{
					"attributes":{
						"POSITION":20,
						"NORMAL":21,
						"TEXCOORD_0":22
					},
					"indices":23,
					"material":5
				},
				{
					"attributes":{
						"POSITION":24,
						"NORMAL":25,
						"TEXCOORD_0":26
					},
					"indices":27,
					"material":6
				}
			]
		}
	],
	"textures":[
		{
			"sampler":0,
			"source":0
		},
		{
			"sampler":0,
			"source":1
		},
		{
			"sampler":0,
			"source":2
		}
	],
	"images":[
		{
			"mimeType":"image/jpeg",
			"name":"Teak_Wood_01_Normal",
			"uri":"Teak_Wood_01_Normal.jpg"
		},
		{
			"mimeType":"image/jpeg",
			"name":"Teak_Wood_01_Base",
			"uri":"Teak_Wood_01_Base.jpg"
		},
		{
			"mimeType":"image/png",
			"name":"Teak_Wood_01_Roughness",
			"uri":"Teak_Wood_01_Roughness.png"
		}
	],
	"accessors":[
		{
			"bufferView":0,
			"componentType":5126,
			"count":48,
			"max":[
				11.841035842895508,
				0.9999999403953552,
				7.259263038635254
			],
			"min":[
				-11.841035842895508,
				-1,
				-7.259264945983887
			],
			"type":"VEC3"
		},
		{
			"bufferView":1,
			"componentType":5126,
			"count":48,
			"type":"VEC3"
		},
		{
			"bufferView":2,
			"componentType":5126,
			"count":48,
			"type":"VEC2"
		},
		{
			"bufferView":3,
			"componentType":5123,
			"count":72,
			"type":"SCALAR"
		},
		{
			"bufferView":4,
			"componentType":5126,
			"count":259,
			"max":[
				11.843122482299805,
				1.3945844173431396,
				7.260278701782227
			],
			"min":[
				-11.843120574951172,
				0.9971964359283447,
				-7.267721652984619
			],
			"type":"VEC3"
		},
		{
			"bufferView":5,
			"componentType":5126,
			"count":259,
			"type":"VEC3"
		},
		{
			"bufferView":6,
			"componentType":5126,
			"count":259,
			"type":"VEC2"
		},
		{
			"bufferView":7,
			"componentType":5123,
			"count":465,
			"type":"SCALAR"
		},
		{
			"bufferView":8,
			"componentType":5126,
			"count":118,
			"max":[
				5.797628402709961,
				1.408573865890503,
				0.8148576021194458
			],
			"min":[
				-5.795119762420654,
				1.011185884475708,
				0.3974112272262573
			],
			"type":"VEC3"
		},
		{
			"bufferView":9,
			"componentType":5126,
			"count":118,
			"type":"VEC3"
		},
		{
			"bufferView":10,
			"componentType":5126,
			"count":118,
			"type":"VEC2"
		},
		{
			"bufferView":11,
			"componentType":5123,
			"count":240,
			"type":"SCALAR"
		},
		{
			"bufferView":12,
			"componentType":5126,
			"count":120,
			"max":[
				8.871296882629395,
				1.4033350944519043,
				1.00191330909729
			],
			"min":[
				-8.871294975280762,
				1.3540077209472656,
				0.2182612121105194
			],
			"type":"VEC3"
		},
		{
			"bufferView":13,
			"componentType":5126,
			"count":120,
			"type":"VEC3"
		},
		{
			"bufferView":14,
			"componentType":5126,
			"count":120,
			"type":"VEC2"
		},
		{
			"bufferView":15,
			"componentType":5123,
			"count":192,
			"type":"SCALAR"
		},
		{
			"bufferView":16,
			"componentType":5126,
			"count":1344,
			"max":[
				5.739615440368652,
				2.7950735092163086,
				0.7426251173019409
			],
			"min":[
				-5.737381935119629,
				1.2224359512329102,
				0.45848387479782104
			],
			"type":"VEC3"
		},
		{
			"bufferView":17,
			"componentType":5126,
			"count":1344,
			"type":"VEC3"
		},
		{
			"bufferView":18,
			"componentType":5126,
			"count":1344,
			"type":"VEC2"
		},
		{
			"bufferView":19,
			"componentType":5123,
			"count":2100,
			"type":"SCALAR"
		},
		{
			"bufferView":20,
			"componentType":5126,
			"count":192,
			"max":[
				0.8239849209785461,
				3.2044825553894043,
				1.1350620985031128
			],
			"min":[
				-0.8257740139961243,
				2.1651463508605957,
				0.05797302722930908
			],
			"type":"VEC3"
		},
		{
			"bufferView":21,
			"componentType":5126,
			"count":192,
			"type":"VEC3"
		},
		{
			"bufferView":22,
			"componentType":5126,
			"count":192,
			"type":"VEC2"
		},
		{
			"bufferView":23,
			"componentType":5123,
			"count":372,
			"type":"SCALAR"
		},
		{
			"bufferView":24,
			"componentType":5126,
			"count":128,
			"max":[
				0.8239849209785461,
				3.2044825553894043,
				1.1350620985031128
			],
			"min":[
				0.5046766996383667,
				2.1651463508605957,
				0.05797302722930908
			],
			"type":"VEC3"
		},
		{
			"bufferView":25,
			"componentType":5126,
			"count":128,
			"type":"VEC3"
		},
		{
			"bufferView":26,
			"componentType":5126,
			"count":128,
			"type":"VEC2"
		},
		{
			"bufferView":27,
			"componentType":5123,
			"count":192,
			"type":"SCALAR"
		}
	],
	"bufferViews":[
		{
			"buffer":0,
			"byteLength":576,
			"byteOffset":0,
			"target":34962
		},
		{
			"buffer":0,
			"byteLength":576,
			"byteOffset":576,
			"target":34962
		},
		{
			"buffer":0,
			"byteLength":384,
			"byteOffset":1152,
			"target":34962
		},
		{
			"buffer":0,
			"byteLength":144,
			"byteOffset":1536,
			"target":34963
		},
		{
			"buffer":0,
			"byteLength":3108,
			"byteOffset":1680,
			"target":34962
		},
		{
			"buffer":0,
			"byteLength":3108,
			"byteOffset":4788,
			"target":34962
		},
		{
			"buffer":0,
			"byteLength":2072,
			"byteOffset":7896,
			"target":34962
		},
		{
			"buffer":0,
			"byteLength":930,
			"byteOffset":9968,
			"target":34963
		},
		{
			"buffer":0,
			"byteLength":1416,
			"byteOffset":10900,
			"target":34962
		},
		{
			"buffer":0,
			"byteLength":1416,
			"byteOffset":12316,
			"target":34962
		},
		{
			"buffer":0,
			"byteLength":944,
			"byteOffset":13732,
			"target":34962
		},
		{
			"buffer":0,
			"byteLength":480,
			"byteOffset":14676,
			"target":34963
		},
		{
			"buffer":0,
			"byteLength":1440,
			"byteOffset":15156,
			"target":34962
		},
		{
			"buffer":0,
			"byteLength":1440,
			"byteOffset":16596,
			"target":34962
		},
		{
			"buffer":0,
			"byteLength":960,
			"byteOffset":18036,
			"target":34962
		},
		{
			"buffer":0,
			"byteLength":384,
			"byteOffset":18996,
			"target":34963
		},
		{
			"buffer":0,
			"byteLength":16128,
			"byteOffset":19380,
			"target":34962
		},
		{
			"buffer":0,
			"byteLength":16128,
			"byteOffset":35508,
			"target":34962
		},
		{
			"buffer":0,
			"byteLength":10752,
			"byteOffset":51636,
			"target":34962
		},
		{
			"buffer":0,
			"byteLength":4200,
			"byteOffset":62388,
			"target":34963
		},
		{
			"buffer":0,
			"byteLength":2304,
			"byteOffset":66588,
			"target":34962
		},
		{
			"buffer":0,
			"byteLength":2304,
			"byteOffset":68892,
			"target":34962
		},
		{
			"buffer":0,
			"byteLength":1536,
			"byteOffset":71196,
			"target":34962
		},
		{
			"buffer":0,
			"byteLength":744,
			"byteOffset":72732,
			"target":34963
		},
		{
			"buffer":0,
			"byteLength":1536,
			"byteOffset":73476,
			"target":34962
		},
		{
			"buffer":0,
			"byteLength":1536,
			"byteOffset":75012,
			"target":34962
		},
		{
			"buffer":0,
			"byteLength":1024,
			"byteOffset":76548,
			"target":34962
		},
		{
			"buffer":0,
			"byteLength":384,
			"byteOffset":77572,
			"target":34963
		}
	],
	"samplers":[
		{
			"magFilter":9729,
			"minFilter":9987
		}
	],
	"buffers":[
		{
			"byteLength":77956,
			"uri":"%D0%B4%D0%B8%D0%BE%D0%B4.bin"
		}
	]
}
