{
	"asset":{
		"generator":"Khronos glTF Blender I/O v4.0.44",
		"version":"2.0"
	},
	"scene":0,
	"scenes":[
		{
			"name":"Scene",
			"nodes":[
				0
			]
		}
	],
	"nodes":[
		{
			"mesh":0,
			"name":"Cylinder.007",
			"rotation":[
				0.7071068286895752,
				0,
				0,
				0.7071068286895752
			],
			"scale":[
				0.1869625449180603,
				0.1869625449180603,
				0.1869625449180603
			],
			"translation":[
				11.15491771697998,
				27.200820922851562,
				6.954757213592529
			]
		}
	],
	"materials":[
		{
			"doubleSided":true,
			"name":"Material.011",
			"pbrMetallicRoughness":{
				"baseColorFactor":[
					0.02208387292921543,
					0.02208387292921543,
					0.02208387292921543,
					1
				],
				"metallicFactor":0,
				"roughnessFactor":0.5
			}
		},
		{
			"doubleSided":true,
			"name":"M_MetalRuler_SF",
			"normalTexture":{
				"index":0
			},
			"pbrMetallicRoughness":{
				"baseColorTexture":{
					"index":1
				},
				"metallicRoughnessTexture":{
					"index":2
				}
			}
		}
	],
	"meshes":[
		{
			"name":"Cylinder.002",
			"primitives":[
				{
					"attributes":{
						"POSITION":0,
						"NORMAL":1,
						"TEXCOORD_0":2
					},
					"indices":3,
					"material":0
				},
				{
					"attributes":{
						"POSITION":4,
						"NORMAL":5,
						"TEXCOORD_0":6
					},
					"indices":7,
					"material":1
				}
			]
		}
	],
	"textures":[
		{
			"sampler":0,
			"source":0
		},
		{
			"sampler":0,
			"source":1
		},
		{
			"sampler":0,
			"source":2
		}
	],
	"images":[
		{
			"mimeType":"image/png",
			"name":"ruler_paint_M_MetalRuler_Normal OpenGL_1001_Raw",
			"uri":"ruler_paint_M_MetalRuler_Normal%20OpenGL_1001_Raw.png"
		},
		{
			"mimeType":"image/png",
			"name":"ruler_paint_M_MetalRuler_Color_Alpha_1001_sRGB",
			"uri":"ruler_paint_M_MetalRuler_Color_Alpha_1001_sRGB.png"
		},
		{
			"mimeType":"image/png",
			"name":"ruler_paint_M_MetalRuler_Roughness_1001_Raw",
			"uri":"ruler_paint_M_MetalRuler_Roughness_1001_Raw.png"
		}
	],
	"accessors":[
		{
			"bufferView":0,
			"componentType":5126,
			"count":210,
			"max":[
				18.248613357543945,
				7.680802345275879,
				52.559104919433594
			],
			"min":[
				-10.411078453063965,
				-13.141358375549316,
				-1.4297752380371094
			],
			"type":"VEC3"
		},
		{
			"bufferView":1,
			"componentType":5126,
			"count":210,
			"type":"VEC3"
		},
		{
			"bufferView":2,
			"componentType":5126,
			"count":210,
			"type":"VEC2"
		},
		{
			"bufferView":3,
			"componentType":5123,
			"count":360,
			"type":"SCALAR"
		},
		{
			"bufferView":4,
			"componentType":5126,
			"count":68,
			"max":[
				17.77982521057129,
				0.899141252040863,
				48.28461456298828
			],
			"min":[
				-1.2690459489822388,
				0.6423360705375671,
				42.77813720703125
			],
			"type":"VEC3"
		},
		{
			"bufferView":5,
			"componentType":5126,
			"count":68,
			"type":"VEC3"
		},
		{
			"bufferView":6,
			"componentType":5126,
			"count":68,
			"type":"VEC2"
		},
		{
			"bufferView":7,
			"componentType":5123,
			"count":204,
			"type":"SCALAR"
		}
	],
	"bufferViews":[
		{
			"buffer":0,
			"byteLength":2520,
			"byteOffset":0,
			"target":34962
		},
		{
			"buffer":0,
			"byteLength":2520,
			"byteOffset":2520,
			"target":34962
		},
		{
			"buffer":0,
			"byteLength":1680,
			"byteOffset":5040,
			"target":34962
		},
		{
			"buffer":0,
			"byteLength":720,
			"byteOffset":6720,
			"target":34963
		},
		{
			"buffer":0,
			"byteLength":816,
			"byteOffset":7440,
			"target":34962
		},
		{
			"buffer":0,
			"byteLength":816,
			"byteOffset":8256,
			"target":34962
		},
		{
			"buffer":0,
			"byteLength":544,
			"byteOffset":9072,
			"target":34962
		},
		{
			"buffer":0,
			"byteLength":408,
			"byteOffset":9616,
			"target":34963
		}
	],
	"samplers":[
		{
			"magFilter":9729,
			"minFilter":9987
		}
	],
	"buffers":[
		{
			"byteLength":10024,
			"uri":"Pendulum.bin"
		}
	]
}
