{
	"asset":{
		"generator":"Khronos glTF Blender I/O v4.0.44",
		"version":"2.0"
	},
	"scene":0,
	"scenes":[
		{
			"name":"Scene",
			"nodes":[
				0
			]
		}
	],
	"nodes":[
		{
			"mesh":0,
			"name":"\u041a\u043e\u0440\u043e\u0431\u043a\u0430 \u043d\u0430\u043f\u0440\u044f\u0436\u0435\u043d\u0438\u044f",
			"rotation":[
				0,
				-0.7070808410644531,
				0,
				0.7071326971054077
			],
			"scale":[
				1,
				0.31978845596313477,
				1
			],
			"translation":[
				-14.893177032470703,
				17.601680755615234,
				4.900027751922607
			]
		}
	],
	"meshes":[
		{
			"name":"\u041a\u043e\u0440\u043e\u0431\u043a\u0430 \u043d\u0430\u043f\u0440\u044f\u0436\u0435\u043d\u0438\u044f",
			"primitives":[
				{
					"attributes":{
						"POSITION":0,
						"NORMAL":1,
						"TEXCOORD_0":2,
						"TEXCOORD_1":3
					},
					"indices":4
				}
			]
		}
	],
	"accessors":[
		{
			"bufferView":0,
			"componentType":5126,
			"count":51,
			"max":[
				1,
				1,
				1
			],
			"min":[
				-1,
				-1,
				-1
			],
			"type":"VEC3"
		},
		{
			"bufferView":1,
			"componentType":5126,
			"count":51,
			"type":"VEC3"
		},
		{
			"bufferView":2,
			"componentType":5126,
			"count":51,
			"type":"VEC2"
		},
		{
			"bufferView":3,
			"componentType":5126,
			"count":51,
			"type":"VEC2"
		},
		{
			"bufferView":4,
			"componentType":5123,
			"count":132,
			"type":"SCALAR"
		}
	],
	"bufferViews":[
		{
			"buffer":0,
			"byteLength":612,
			"byteOffset":0,
			"target":34962
		},
		{
			"buffer":0,
			"byteLength":612,
			"byteOffset":612,
			"target":34962
		},
		{
			"buffer":0,
			"byteLength":408,
			"byteOffset":1224,
			"target":34962
		},
		{
			"buffer":0,
			"byteLength":408,
			"byteOffset":1632,
			"target":34962
		},
		{
			"buffer":0,
			"byteLength":264,
			"byteOffset":2040,
			"target":34963
		}
	],
	"buffers":[
		{
			"byteLength":2304,
			"uri":"RegulatorBase.bin"
		}
	]
}
