{
	"asset":{
		"generator":"Khronos glTF Blender I/O v4.0.44",
		"version":"2.0"
	},
	"scene":0,
	"scenes":[
		{
			"name":"Scene",
			"nodes":[
				0
			]
		}
	],
	"nodes":[
		{
			"mesh":0,
			"name":"iron_table",
			"scale":[
				0.5230411887168884,
				8.698162078857422,
				0.5230411887168884
			],
			"translation":[
				15.50108528137207,
				8.056581497192383,
				9.781061172485352
			]
		}
	],
	"materials":[
		{
			"doubleSided":true,
			"name":"Artisan oak, kronospan, wood.",
			"pbrMetallicRoughness":{}
		}
	],
	"meshes":[
		{
			"name":"iron_table",
			"primitives":[
				{
					"attributes":{
						"POSITION":0,
						"NORMAL":1,
						"TEXCOORD_0":2,
						"TEXCOORD_1":3
					},
					"indices":4,
					"material":0
				}
			]
		}
	],
	"accessors":[
		{
			"bufferView":0,
			"componentType":5126,
			"count":120,
			"max":[
				1.0000038146972656,
				1.0677510499954224,
				1.0000019073486328
			],
			"min":[
				-61.419776916503906,
				-1,
				-32.88872146606445
			],
			"type":"VEC3"
		},
		{
			"bufferView":1,
			"componentType":5126,
			"count":120,
			"type":"VEC3"
		},
		{
			"bufferView":2,
			"componentType":5126,
			"count":120,
			"type":"VEC2"
		},
		{
			"bufferView":3,
			"componentType":5126,
			"count":120,
			"type":"VEC2"
		},
		{
			"bufferView":4,
			"componentType":5123,
			"count":180,
			"type":"SCALAR"
		}
	],
	"bufferViews":[
		{
			"buffer":0,
			"byteLength":1440,
			"byteOffset":0,
			"target":34962
		},
		{
			"buffer":0,
			"byteLength":1440,
			"byteOffset":1440,
			"target":34962
		},
		{
			"buffer":0,
			"byteLength":960,
			"byteOffset":2880,
			"target":34962
		},
		{
			"buffer":0,
			"byteLength":960,
			"byteOffset":3840,
			"target":34962
		},
		{
			"buffer":0,
			"byteLength":360,
			"byteOffset":4800,
			"target":34963
		}
	],
	"buffers":[
		{
			"byteLength":5160,
			"uri":"stol_5.bin"
		}
	]
}
