{
	"asset":{
		"generator":"Khronos glTF Blender I/O v4.0.44",
		"version":"2.0"
	},
	"extensionsUsed":[
		"KHR_texture_transform",
		"KHR_materials_clearcoat",
		"KHR_materials_specular",
		"KHR_materials_ior"
	],
	"extensionsRequired":[
		"KHR_texture_transform"
	],
	"scene":0,
	"scenes":[
		{
			"name":"Scene",
			"nodes":[
				0
			]
		}
	],
	"nodes":[
		{
			"mesh":0,
			"name":"iron_table",
			"scale":[
				0.5230411887168884,
				8.698162078857422,
				0.5230411887168884
			],
			"translation":[
				15.50108528137207,
				8.056581497192383,
				9.781061172485352
			]
		}
	],
	"materials":[
		{
			"doubleSided":true,
			"extensions":{
				"KHR_materials_clearcoat":{
					"clearcoatFactor":0.02500000037252903,
					"clearcoatRoughnessFactor":1,
					"clearcoatRoughnessTexture":{
						"extensions":{
							"KHR_texture_transform":{
								"offset":[
									0.5999999642372131,
									0
								]
							}
						},
						"index":0,
						"texCoord":1
					}
				},
				"KHR_materials_specular":{
					"specularTexture":{
						"extensions":{
							"KHR_texture_transform":{
								"offset":[
									0.5999999642372131,
									0
								]
							}
						},
						"index":1,
						"texCoord":1
					},
					"specularColorTexture":{
						"extensions":{
							"KHR_texture_transform":{
								"offset":[
									0.5999999642372131,
									0
								]
							}
						},
						"index":2,
						"texCoord":1
					}
				},
				"KHR_materials_ior":{
					"ior":1.4500000476837158
				}
			},
			"name":"Artisan oak, kronospan, wood.",
			"pbrMetallicRoughness":{
				"baseColorTexture":{
					"extensions":{
						"KHR_texture_transform":{
							"offset":[
								0.5999999642372131,
								0
							]
						}
					},
					"index":3,
					"texCoord":1
				},
				"metallicFactor":0,
				"metallicRoughnessTexture":{
					"extensions":{
						"KHR_texture_transform":{
							"offset":[
								0.5999999642372131,
								0
							]
						}
					},
					"index":4,
					"texCoord":1
				}
			}
		}
	],
	"meshes":[
		{
			"name":"iron_table",
			"primitives":[
				{
					"attributes":{
						"POSITION":0,
						"NORMAL":1,
						"TEXCOORD_0":2,
						"TEXCOORD_1":3
					},
					"indices":4,
					"material":0
				}
			]
		}
	],
	"textures":[
		{
			"sampler":0,
			"source":0
		},
		{
			"sampler":0,
			"source":1
		},
		{
			"sampler":0,
			"source":2
		},
		{
			"sampler":0,
			"source":2
		},
		{
			"sampler":0,
			"source":3
		}
	],
	"images":[
		{
			"mimeType":"image/jpeg",
			"name":"\u0414\u0443\u0431 \u0430\u0440\u0442\u0438\u0437\u0430\u043d",
			"uri":"dub.jpg"
		},
		{
			"mimeType":"image/jpeg",
			"name":"\u0414\u0443\u0431 \u0430\u0440\u0442\u0438\u0437\u0430\u043d",
			"uri":"dub-1.jpg"
		},
		{
			"mimeType":"image/jpeg",
			"name":"\u0414\u0443\u0431 \u0430\u0440\u0442\u0438\u0437\u0430\u043d",
			"uri":"dub-2.jpg"
		},
		{
			"mimeType":"image/jpeg",
			"name":"\u0414\u0443\u0431 \u0430\u0440\u0442\u0438\u0437\u0430\u043d",
			"uri":"dub-3.jpg"
		}
	],
	"accessors":[
		{
			"bufferView":0,
			"componentType":5126,
			"count":120,
			"max":[
				1.0000038146972656,
				1.0677510499954224,
				1.0000019073486328
			],
			"min":[
				-61.419776916503906,
				-1,
				-32.88872146606445
			],
			"type":"VEC3"
		},
		{
			"bufferView":1,
			"componentType":5126,
			"count":120,
			"type":"VEC3"
		},
		{
			"bufferView":2,
			"componentType":5126,
			"count":120,
			"type":"VEC2"
		},
		{
			"bufferView":3,
			"componentType":5126,
			"count":120,
			"type":"VEC2"
		},
		{
			"bufferView":4,
			"componentType":5123,
			"count":180,
			"type":"SCALAR"
		}
	],
	"bufferViews":[
		{
			"buffer":0,
			"byteLength":1440,
			"byteOffset":0,
			"target":34962
		},
		{
			"buffer":0,
			"byteLength":1440,
			"byteOffset":1440,
			"target":34962
		},
		{
			"buffer":0,
			"byteLength":960,
			"byteOffset":2880,
			"target":34962
		},
		{
			"buffer":0,
			"byteLength":960,
			"byteOffset":3840,
			"target":34962
		},
		{
			"buffer":0,
			"byteLength":360,
			"byteOffset":4800,
			"target":34963
		}
	],
	"samplers":[
		{
			"magFilter":9729,
			"minFilter":9987
		}
	],
	"buffers":[
		{
			"byteLength":5160,
			"uri":"Stol.bin"
		}
	]
}
