{
	"asset":{
		"generator":"Khronos glTF Blender I/O v4.0.44",
		"version":"2.0"
	},
	"scene":0,
	"scenes":[
		{
			"name":"Scene",
			"nodes":[
				0
			]
		}
	],
	"nodes":[
		{
			"mesh":0,
			"name":"wiring_1.003",
			"rotation":[
				0.7071068286895752,
				7.064420788083225e-05,
				-7.064422243274748e-05,
				0.7071068286895752
			],
			"scale":[
				0.09411576390266418,
				0.725239634513855,
				0.09411576390266418
			],
			"translation":[
				-14.220775604248047,
				17.482778549194336,
				6.623364448547363
			]
		}
	],
	"materials":[
		{
			"doubleSided":true,
			"name":"Material.015",
			"pbrMetallicRoughness":{
				"baseColorFactor":[
					0,
					0,
					0,
					1
				],
				"metallicFactor":0,
				"roughnessFactor":0.5
			}
		}
	],
	"meshes":[
		{
			"name":"wiring_1.003",
			"primitives":[
				{
					"attributes":{
						"POSITION":0,
						"NORMAL":1,
						"TEXCOORD_0":2
					},
					"indices":3,
					"material":0
				}
			]
		}
	],
	"accessors":[
		{
			"bufferView":0,
			"componentType":5126,
			"count":1169,
			"max":[
				3.7635722160339355,
				4.454275131225586,
				0.99776691198349
			],
			"min":[
				-1.0041117668151855,
				-1,
				-1.000001072883606
			],
			"type":"VEC3"
		},
		{
			"bufferView":1,
			"componentType":5126,
			"count":1169,
			"type":"VEC3"
		},
		{
			"bufferView":2,
			"componentType":5126,
			"count":1169,
			"type":"VEC2"
		},
		{
			"bufferView":3,
			"componentType":5123,
			"count":1827,
			"type":"SCALAR"
		}
	],
	"bufferViews":[
		{
			"buffer":0,
			"byteLength":14028,
			"byteOffset":0,
			"target":34962
		},
		{
			"buffer":0,
			"byteLength":14028,
			"byteOffset":14028,
			"target":34962
		},
		{
			"buffer":0,
			"byteLength":9352,
			"byteOffset":28056,
			"target":34962
		},
		{
			"buffer":0,
			"byteLength":3654,
			"byteOffset":37408,
			"target":34963
		}
	],
	"buffers":[
		{
			"byteLength":41064,
			"uri":"%D0%BF%D1%80%D0%BE%D0%B2%D0%BE%D0%B4_%D0%BC%D0%B5%D0%B6%D0%B4%D1%83_%D0%B2%D0%BE%D0%BB%D1%8C%D1%82%D0%BC%D0%B5%D1%82%D1%80%D0%BE%D0%BC_%D0%B8_%D1%80%D0%B5%D0%B3%D1%83%D0%BB%D1%8F%D1%82%D0%BE%D1%80%D0%BE%D0%BC.bin"
		}
	]
}
