{
	"asset":{
		"generator":"Khronos glTF Blender I/O v4.0.44",
		"version":"2.0"
	},
	"extensionsUsed":[
		"KHR_materials_clearcoat",
		"KHR_materials_specular",
		"KHR_materials_ior"
	],
	"scene":0,
	"scenes":[
		{
			"name":"Scene",
			"nodes":[
				0
			]
		}
	],
	"nodes":[
		{
			"mesh":0,
			"name":"Cube.001",
			"rotation":[
				0,
				0.7071068286895752,
				0,
				0.7071068286895752
			],
			"scale":[
				0.4506237804889679,
				0.18787771463394165,
				0.5660756230354309
			],
			"translation":[
				-15.240682601928711,
				17.86613655090332,
				7.958064556121826
			]
		}
	],
	"materials":[
		{
			"doubleSided":true,
			"extensions":{
				"KHR_materials_clearcoat":{
					"clearcoatFactor":0.7818182110786438,
					"clearcoatRoughnessFactor":0.15272727608680725
				},
				"KHR_materials_specular":{
					"specularFactor":0.5454545021057129
				},
				"KHR_materials_ior":{
					"ior":1.4500000476837158
				}
			},
			"name":"Plastic",
			"pbrMetallicRoughness":{
				"metallicFactor":0
			}
		},
		{
			"doubleSided":true,
			"name":"Material.011",
			"pbrMetallicRoughness":{
				"baseColorFactor":[
					0.02208387292921543,
					0.02208387292921543,
					0.02208387292921543,
					1
				],
				"metallicFactor":0,
				"roughnessFactor":0.5
			}
		}
	],
	"meshes":[
		{
			"name":"Cube.002",
			"primitives":[
				{
					"attributes":{
						"POSITION":0,
						"NORMAL":1,
						"TEXCOORD_0":2,
						"TEXCOORD_1":3
					},
					"indices":4,
					"material":0
				},
				{
					"attributes":{
						"POSITION":5,
						"NORMAL":6,
						"TEXCOORD_0":7,
						"TEXCOORD_1":8
					},
					"indices":9,
					"material":1
				}
			]
		}
	],
	"accessors":[
		{
			"bufferView":0,
			"componentType":5126,
			"count":5100,
			"max":[
				2.4878475666046143,
				1.6377439498901367,
				1
			],
			"min":[
				-2.5423097610473633,
				-4.780974388122559,
				-1.0000019073486328
			],
			"type":"VEC3"
		},
		{
			"bufferView":1,
			"componentType":5126,
			"count":5100,
			"type":"VEC3"
		},
		{
			"bufferView":2,
			"componentType":5126,
			"count":5100,
			"type":"VEC2"
		},
		{
			"bufferView":3,
			"componentType":5126,
			"count":5100,
			"type":"VEC2"
		},
		{
			"bufferView":4,
			"componentType":5123,
			"count":8958,
			"type":"SCALAR"
		},
		{
			"bufferView":5,
			"componentType":5126,
			"count":1356,
			"max":[
				1.8736109733581543,
				-0.9624878168106079,
				0.6875321865081787
			],
			"min":[
				-1.8736071586608887,
				-1.2440202236175537,
				-0.6875358819961548
			],
			"type":"VEC3"
		},
		{
			"bufferView":6,
			"componentType":5126,
			"count":1356,
			"type":"VEC3"
		},
		{
			"bufferView":7,
			"componentType":5126,
			"count":1356,
			"type":"VEC2"
		},
		{
			"bufferView":8,
			"componentType":5126,
			"count":1356,
			"type":"VEC2"
		},
		{
			"bufferView":9,
			"componentType":5123,
			"count":4560,
			"type":"SCALAR"
		}
	],
	"bufferViews":[
		{
			"buffer":0,
			"byteLength":61200,
			"byteOffset":0,
			"target":34962
		},
		{
			"buffer":0,
			"byteLength":61200,
			"byteOffset":61200,
			"target":34962
		},
		{
			"buffer":0,
			"byteLength":40800,
			"byteOffset":122400,
			"target":34962
		},
		{
			"buffer":0,
			"byteLength":40800,
			"byteOffset":163200,
			"target":34962
		},
		{
			"buffer":0,
			"byteLength":17916,
			"byteOffset":204000,
			"target":34963
		},
		{
			"buffer":0,
			"byteLength":16272,
			"byteOffset":221916,
			"target":34962
		},
		{
			"buffer":0,
			"byteLength":16272,
			"byteOffset":238188,
			"target":34962
		},
		{
			"buffer":0,
			"byteLength":10848,
			"byteOffset":254460,
			"target":34962
		},
		{
			"buffer":0,
			"byteLength":10848,
			"byteOffset":265308,
			"target":34962
		},
		{
			"buffer":0,
			"byteLength":9120,
			"byteOffset":276156,
			"target":34963
		}
	],
	"buffers":[
		{
			"byteLength":285276,
			"uri":"%D0%90%D0%B2%D1%82%D0%BE%D0%BC%D0%B0%D1%82.bin"
		}
	]
}
