{
	"asset":{
		"generator":"Khronos glTF Blender I/O v4.0.44",
		"version":"2.0"
	},
	"extensionsUsed":[
		"KHR_materials_transmission",
		"KHR_materials_ior"
	],
	"scene":0,
	"scenes":[
		{
			"name":"Scene",
			"nodes":[
				0
			]
		}
	],
	"nodes":[
		{
			"mesh":0,
			"name":"Cylinder.012",
			"scale":[
				0.22548934817314148,
				0.22548934817314148,
				0.22548934817314148
			],
			"translation":[
				-7.725129127502441,
				17.769691467285156,
				4.851109027862549
			]
		}
	],
	"materials":[
		{
			"doubleSided":true,
			"name":"Material.011",
			"pbrMetallicRoughness":{
				"baseColorFactor":[
					0.02208387292921543,
					0.02208387292921543,
					0.02208387292921543,
					1
				],
				"metallicFactor":0,
				"roughnessFactor":0.5
			}
		},
		{
			"doubleSided":true,
			"name":"Material.012",
			"pbrMetallicRoughness":{
				"baseColorFactor":[
					0.16146259009838104,
					0.16146259009838104,
					0.16146259009838104,
					1
				],
				"metallicFactor":0,
				"roughnessFactor":0.5
			}
		},
		{
			"doubleSided":true,
			"extensions":{
				"KHR_materials_transmission":{
					"transmissionFactor":1
				},
				"KHR_materials_ior":{
					"ior":1.4500000476837158
				}
			},
			"name":"Material.014",
			"pbrMetallicRoughness":{
				"baseColorFactor":[
					0.800000011920929,
					0.800000011920929,
					0.800000011920929,
					1
				],
				"metallicFactor":0,
				"roughnessFactor":0
			}
		}
	],
	"meshes":[
		{
			"name":"Cylinder.015",
			"primitives":[
				{
					"attributes":{
						"POSITION":0,
						"NORMAL":1,
						"TEXCOORD_0":2
					},
					"indices":3,
					"material":0
				},
				{
					"attributes":{
						"POSITION":4,
						"NORMAL":5,
						"TEXCOORD_0":6
					},
					"indices":7,
					"material":1
				},
				{
					"attributes":{
						"POSITION":8,
						"NORMAL":9,
						"TEXCOORD_0":10
					},
					"indices":11,
					"material":2
				}
			]
		}
	],
	"accessors":[
		{
			"bufferView":0,
			"componentType":5126,
			"count":35664,
			"max":[
				1.225160837173462,
				6.207287788391113,
				0.9867768883705139
			],
			"min":[
				-1.352867603302002,
				-1.601502537727356,
				-0.9838629961013794
			],
			"type":"VEC3"
		},
		{
			"bufferView":1,
			"componentType":5126,
			"count":35664,
			"type":"VEC3"
		},
		{
			"bufferView":2,
			"componentType":5126,
			"count":35664,
			"type":"VEC2"
		},
		{
			"bufferView":3,
			"componentType":5123,
			"count":53496,
			"type":"SCALAR"
		},
		{
			"bufferView":4,
			"componentType":5126,
			"count":258,
			"max":[
				1.2601631879806519,
				1.752572774887085,
				1.261311411857605
			],
			"min":[
				-1.2595456838607788,
				0.8265672326087952,
				-1.2583974599838257
			],
			"type":"VEC3"
		},
		{
			"bufferView":5,
			"componentType":5126,
			"count":258,
			"type":"VEC3"
		},
		{
			"bufferView":6,
			"componentType":5126,
			"count":258,
			"type":"VEC2"
		},
		{
			"bufferView":7,
			"componentType":5123,
			"count":756,
			"type":"SCALAR"
		},
		{
			"bufferView":8,
			"componentType":5126,
			"count":654,
			"max":[
				3.3072736263275146,
				8.874505996704102,
				3.3164706230163574
			],
			"min":[
				-3.32275390625,
				1.7564343214035034,
				-3.31355881690979
			],
			"type":"VEC3"
		},
		{
			"bufferView":9,
			"componentType":5126,
			"count":654,
			"type":"VEC3"
		},
		{
			"bufferView":10,
			"componentType":5126,
			"count":654,
			"type":"VEC2"
		},
		{
			"bufferView":11,
			"componentType":5123,
			"count":2832,
			"type":"SCALAR"
		}
	],
	"bufferViews":[
		{
			"buffer":0,
			"byteLength":427968,
			"byteOffset":0,
			"target":34962
		},
		{
			"buffer":0,
			"byteLength":427968,
			"byteOffset":427968,
			"target":34962
		},
		{
			"buffer":0,
			"byteLength":285312,
			"byteOffset":855936,
			"target":34962
		},
		{
			"buffer":0,
			"byteLength":106992,
			"byteOffset":1141248,
			"target":34963
		},
		{
			"buffer":0,
			"byteLength":3096,
			"byteOffset":1248240,
			"target":34962
		},
		{
			"buffer":0,
			"byteLength":3096,
			"byteOffset":1251336,
			"target":34962
		},
		{
			"buffer":0,
			"byteLength":2064,
			"byteOffset":1254432,
			"target":34962
		},
		{
			"buffer":0,
			"byteLength":1512,
			"byteOffset":1256496,
			"target":34963
		},
		{
			"buffer":0,
			"byteLength":7848,
			"byteOffset":1258008,
			"target":34962
		},
		{
			"buffer":0,
			"byteLength":7848,
			"byteOffset":1265856,
			"target":34962
		},
		{
			"buffer":0,
			"byteLength":5232,
			"byteOffset":1273704,
			"target":34962
		},
		{
			"buffer":0,
			"byteLength":5664,
			"byteOffset":1278936,
			"target":34963
		}
	],
	"buffers":[
		{
			"byteLength":1284600,
			"uri":"%D0%BB%D0%B0%D0%BC%D0%BF%D0%B0.bin"
		}
	]
}
