{
	"asset":{
		"generator":"Khronos glTF Blender I/O v4.0.44",
		"version":"2.0"
	},
	"scene":0,
	"scenes":[
		{
			"name":"Scene",
			"nodes":[
				0
			]
		}
	],
	"nodes":[
		{
			"mesh":0,
			"name":"\u041f\u0440\u043e\u0432\u043e\u0434 \u043f\u0438\u0442\u0430\u043d\u0438\u044f.001",
			"scale":[
				0.6857348680496216,
				1.0422431230545044,
				0.6857348680496216
			],
			"translation":[
				-14.751602172851562,
				17.48817253112793,
				9.427867889404297
			]
		}
	],
	"materials":[
		{
			"doubleSided":true,
			"name":"Material.015",
			"pbrMetallicRoughness":{
				"baseColorFactor":[
					0,
					0,
					0,
					1
				],
				"metallicFactor":0,
				"roughnessFactor":0.5
			}
		}
	],
	"meshes":[
		{
			"name":"Cylinder.009",
			"primitives":[
				{
					"attributes":{
						"POSITION":0,
						"NORMAL":1,
						"TEXCOORD_0":2
					},
					"indices":3,
					"material":0
				}
			]
		}
	],
	"accessors":[
		{
			"bufferView":0,
			"componentType":5126,
			"count":4608,
			"max":[
				-0.03435128927230835,
				0.10004742443561554,
				2.610295057296753
			],
			"min":[
				-1.6849421262741089,
				-17.633514404296875,
				-0.8087999820709229
			],
			"type":"VEC3"
		},
		{
			"bufferView":1,
			"componentType":5126,
			"count":4608,
			"type":"VEC3"
		},
		{
			"bufferView":2,
			"componentType":5126,
			"count":4608,
			"type":"VEC2"
		},
		{
			"bufferView":3,
			"componentType":5123,
			"count":9858,
			"type":"SCALAR"
		}
	],
	"bufferViews":[
		{
			"buffer":0,
			"byteLength":55296,
			"byteOffset":0,
			"target":34962
		},
		{
			"buffer":0,
			"byteLength":55296,
			"byteOffset":55296,
			"target":34962
		},
		{
			"buffer":0,
			"byteLength":36864,
			"byteOffset":110592,
			"target":34962
		},
		{
			"buffer":0,
			"byteLength":19716,
			"byteOffset":147456,
			"target":34963
		}
	],
	"buffers":[
		{
			"byteLength":167172,
			"uri":"%D0%9F%D1%80%D0%BE%D0%B2%D0%BE%D0%B4_%D0%B2_%D0%B0%D0%B2%D1%82%D0%BE%D0%BC%D0%B0%D1%82.bin"
		}
	]
}
