{
	"asset":{
		"generator":"Khronos glTF Blender I/O v4.0.44",
		"version":"2.0"
	},
	"scene":0,
	"scenes":[
		{
			"name":"Scene",
			"nodes":[
				0
			]
		}
	],
	"nodes":[
		{
			"mesh":0,
			"name":"\u0418\u0437\u043e\u043b\u044f\u0442\u043e\u0440 \u043a\u043e\u043d\u0442\u0430\u043a\u0442\u0430 #1.004",
			"rotation":[
				0,
				0,
				-1,
				0
			],
			"scale":[
				-0.07445506751537323,
				-0.030787397176027298,
				-0.07445506751537323
			],
			"translation":[
				-9.742526054382324,
				17.693941116333008,
				4.9226579666137695
			]
		}
	],
	"materials":[
		{
			"doubleSided":true,
			"name":"Material.009",
			"pbrMetallicRoughness":{
				"baseColorFactor":[
					0.8000000715255737,
					0.004227735567837954,
					0.01766521856188774,
					1
				],
				"metallicFactor":0,
				"roughnessFactor":0.5
			}
		},
		{
			"doubleSided":true,
			"name":"Material.007",
			"pbrMetallicRoughness":{
				"baseColorFactor":[
					0.8000000715255737,
					0.7956519722938538,
					0.19082802534103394,
					1
				],
				"metallicFactor":0,
				"roughnessFactor":0.5
			}
		}
	],
	"meshes":[
		{
			"name":"\u0418\u0437\u043e\u043b\u044f\u0442\u043e\u0440 \u043a\u043e\u043d\u0442\u0430\u043a\u0442\u0430 #1.004",
			"primitives":[
				{
					"attributes":{
						"POSITION":0,
						"NORMAL":1,
						"TEXCOORD_0":2
					},
					"indices":3,
					"material":0
				},
				{
					"attributes":{
						"POSITION":4,
						"NORMAL":5,
						"TEXCOORD_0":6
					},
					"indices":7,
					"material":1
				}
			]
		}
	],
	"accessors":[
		{
			"bufferView":0,
			"componentType":5126,
			"count":208,
			"max":[
				8.258362770080566,
				1.1753978729248047,
				0.9949718117713928
			],
			"min":[
				6.258362293243408,
				-5.403257369995117,
				-1.0050281286239624
			],
			"type":"VEC3"
		},
		{
			"bufferView":1,
			"componentType":5126,
			"count":208,
			"type":"VEC3"
		},
		{
			"bufferView":2,
			"componentType":5126,
			"count":208,
			"type":"VEC2"
		},
		{
			"bufferView":3,
			"componentType":5123,
			"count":858,
			"type":"SCALAR"
		},
		{
			"bufferView":4,
			"componentType":5126,
			"count":490,
			"max":[
				8.181279182434082,
				2.1499710083007812,
				0.9006005525588989
			],
			"min":[
				6.383816242218018,
				-5.3875508308410645,
				-0.8968626260757446
			],
			"type":"VEC3"
		},
		{
			"bufferView":5,
			"componentType":5126,
			"count":490,
			"type":"VEC3"
		},
		{
			"bufferView":6,
			"componentType":5126,
			"count":490,
			"type":"VEC2"
		},
		{
			"bufferView":7,
			"componentType":5123,
			"count":2580,
			"type":"SCALAR"
		}
	],
	"bufferViews":[
		{
			"buffer":0,
			"byteLength":2496,
			"byteOffset":0,
			"target":34962
		},
		{
			"buffer":0,
			"byteLength":2496,
			"byteOffset":2496,
			"target":34962
		},
		{
			"buffer":0,
			"byteLength":1664,
			"byteOffset":4992,
			"target":34962
		},
		{
			"buffer":0,
			"byteLength":1716,
			"byteOffset":6656,
			"target":34963
		},
		{
			"buffer":0,
			"byteLength":5880,
			"byteOffset":8372,
			"target":34962
		},
		{
			"buffer":0,
			"byteLength":5880,
			"byteOffset":14252,
			"target":34962
		},
		{
			"buffer":0,
			"byteLength":3920,
			"byteOffset":20132,
			"target":34962
		},
		{
			"buffer":0,
			"byteLength":5160,
			"byteOffset":24052,
			"target":34963
		}
	],
	"buffers":[
		{
			"byteLength":29212,
			"uri":"%D0%9A%D0%BE%D0%BD%D1%82%D0%B0%D0%BA%D1%821_%D0%B4%D0%B8%D0%BE%D0%B4%D0%B0.bin"
		}
	]
}
