{
	"asset":{
		"generator":"Khronos glTF Blender I/O v4.0.44",
		"version":"2.0"
	},
	"scene":0,
	"scenes":[
		{
			"name":"Scene",
			"nodes":[
				0
			]
		}
	],
	"nodes":[
		{
			"mesh":0,
			"name":"\u0420\u0435\u0433\u0443\u043b\u044f\u0442\u043e\u0440_\u043d\u0430\u043f\u0440\u044f\u0436\u0435\u043d\u0438\u044f",
			"scale":[
				0.6082262992858887,
				0.09018215537071228,
				0.6082262992858887
			],
			"translation":[
				-14.923316955566406,
				17.97654151916504,
				4.90754508972168
			]
		}
	],
	"animations":[
		{
			"channels":[
				{
					"sampler":0,
					"target":{
						"node":0,
						"path":"rotation"
					}
				},
				{
					"sampler":1,
					"target":{
						"node":0,
						"path":"scale"
					}
				}
			],
			"name":"CylinderAction",
			"samplers":[
				{
					"input":4,
					"interpolation":"LINEAR",
					"output":5
				},
				{
					"input":6,
					"interpolation":"STEP",
					"output":7
				}
			]
		}
	],
	"materials":[
		{
			"doubleSided":true,
			"name":"Material.011",
			"pbrMetallicRoughness":{
				"baseColorFactor":[
					0.02208387292921543,
					0.02208387292921543,
					0.02208387292921543,
					1
				],
				"metallicFactor":0,
				"roughnessFactor":0.5
			}
		}
	],
	"meshes":[
		{
			"name":"\u0420\u0435\u0433\u0443\u043b\u044f\u0442\u043e\u0440_\u043d\u0430\u043f\u0440\u044f\u0436\u0435\u043d\u0438\u044f",
			"primitives":[
				{
					"attributes":{
						"POSITION":0,
						"NORMAL":1,
						"TEXCOORD_0":2
					},
					"indices":3,
					"material":0
				}
			]
		}
	],
	"accessors":[
		{
			"bufferView":0,
			"componentType":5126,
			"count":134,
			"max":[
				0.9755899310112,
				1,
				0.9594930410385132
			],
			"min":[
				-0.9755899310112,
				-1,
				-0.9718267321586609
			],
			"type":"VEC3"
		},
		{
			"bufferView":1,
			"componentType":5126,
			"count":134,
			"type":"VEC3"
		},
		{
			"bufferView":2,
			"componentType":5126,
			"count":134,
			"type":"VEC2"
		},
		{
			"bufferView":3,
			"componentType":5123,
			"count":384,
			"type":"SCALAR"
		},
		{
			"bufferView":4,
			"componentType":5126,
			"count":45,
			"max":[
				1.875
			],
			"min":[
				0.041666666666666664
			],
			"type":"SCALAR"
		},
		{
			"bufferView":5,
			"componentType":5126,
			"count":45,
			"type":"VEC4"
		},
		{
			"bufferView":6,
			"componentType":5126,
			"count":2,
			"max":[
				1.875
			],
			"min":[
				0.041666666666666664
			],
			"type":"SCALAR"
		},
		{
			"bufferView":7,
			"componentType":5126,
			"count":2,
			"type":"VEC3"
		}
	],
	"bufferViews":[
		{
			"buffer":0,
			"byteLength":1608,
			"byteOffset":0,
			"target":34962
		},
		{
			"buffer":0,
			"byteLength":1608,
			"byteOffset":1608,
			"target":34962
		},
		{
			"buffer":0,
			"byteLength":1072,
			"byteOffset":3216,
			"target":34962
		},
		{
			"buffer":0,
			"byteLength":768,
			"byteOffset":4288,
			"target":34963
		},
		{
			"buffer":0,
			"byteLength":180,
			"byteOffset":5056
		},
		{
			"buffer":0,
			"byteLength":720,
			"byteOffset":5236
		},
		{
			"buffer":0,
			"byteLength":8,
			"byteOffset":5956
		},
		{
			"buffer":0,
			"byteLength":24,
			"byteOffset":5964
		}
	],
	"buffers":[
		{
			"byteLength":5988,
			"uri":"%D0%BA%D0%BD%D0%BE%D0%BF%D0%BA%D0%B0_%D1%80%D0%B5%D0%B3%D1%83%D0%BB%D1%8F%D1%82%D0%BE%D1%80%D0%B0.bin"
		}
	]
}
